<svg xmlns="http://www.w3.org/2000/svg"
shape-rendering="geometricPrecision"
width="4000" height="4000" viewBox="0 0 1024 1024">
  <metadata>null</metadata>

<path d="
M 250.379 466.983
C 255.413 459.527 259.927 452.064 265.738 445.123
C 281.476 426.326 301.598 410.636 323.69 400.03
C 334.126 395.02 345.856 389.512 357.526 388.434
C 354.973 394.697 348.62 399.801 344.101 404.636
C 335.414 413.931 326.759 423.581 319.974 434.386
C 313.914 444.037 308.865 454.492 305.943 465.539
C 298.753 492.717 306.227 522.202 315.455 547.975
C 317.18 552.795 319.341 557.444 321.147 562.218
C 320.698 562.39 319.869 561.562 319.538 561.276
C 318.323 560.227 317.249 559.02 316.161 557.843
C 311.419 552.713 306.467 547.797 301.79 542.604
C 289.516 528.977 279.142 513.77 268.711 498.734
C 264.843 493.159 261.187 487.431 257.645 481.642
C 254.988 477.299 251.972 472.849 250.054 468.121
C 250.108 467.305 249.996 467.684 250.379 466.983 Z"
opacity="1" fill="rgb(157,121,83)" fill-rule="evenodd" />
<path d="
M 271.772 558.669
C 276.344 559.143 280.987 563.358 284.674 565.875
C 292.507 571.221 300.426 576.536 308.685 581.211
C 322.484 589.022 337.845 596.359 354.157 594.115
C 358.517 593.515 362.703 592.286 366.772 590.626
C 372.404 588.328 377.702 585.101 382.599 581.514
C 388.957 576.855 393.453 570.697 398.986 565.25
C 400.395 565.728 401.549 566.868 402.708 567.771
C 405.161 569.681 407.615 571.601 410.125 573.434
C 417.297 578.673 424.75 583.45 432.755 587.322
C 446.255 593.852 461.351 595.457 475.752 591.065
C 482.528 588.999 488.796 585.516 494.681 581.629
C 498.99 578.784 503.146 575.726 507.082 572.382
C 509.706 570.154 512.081 567.48 514.931 565.544
C 518.705 567.363 521.913 571.481 525.178 574.101
C 531.436 579.122 538.099 583.737 545.325 587.263
C 555.448 592.203 567.23 594.606 578.453 593.126
C 589.902 591.617 600.908 586.373 610.69 580.459
C 615.592 577.496 620.236 574.108 624.701 570.529
C 626.624 568.988 628.789 566.284 631.085 565.415
C 633.019 566.864 634.413 569.109 636.045 570.875
C 638.978 574.049 642.139 577.039 645.565 579.678
C 654.079 586.239 663.938 591.88 674.688 593.621
C 684.68 595.24 694.884 593.512 704.269 589.926
C 718.772 584.386 731.829 575.776 744.586 567.063
C 747.832 564.847 751.029 562.489 754.388 560.448
C 755.431 559.815 757.277 558.319 758.531 558.806
C 758.907 560.261 757.88 561.946 757.4 563.303
C 756.238 566.587 755.194 569.921 753.95 573.174
C 750.536 582.103 747.416 591.148 743.893 600.039
C 742.449 603.684 741.505 608.108 739.475 611.459
C 738 611.807 736.257 611.569 734.747 611.577
C 731.666 611.593 728.586 611.588 725.505 611.563
C 716.172 611.488 706.836 611.556 697.503 611.582
C 666.67 611.664 635.837 611.556 605.004 611.563
C 529.004 611.582 452.979 611.37 377.002 611.537
C 357.135 611.581 337.269 611.506 317.402 611.415
C 308.511 611.374 299.526 610.918 290.647 611.193
C 287.871 604.07 285.474 596.807 282.81 589.641
C 278.997 579.387 274.996 569.122 271.772 558.669 Z"
opacity="1" fill="rgb(158,122,83)" fill-rule="evenodd" />
<path d="
M 297.332 625.37
C 331.707 624.8 366.122 625.225 400.505 625.233
C 455.673 625.246 510.842 625.149 566.01 625.149
C 604.342 625.149 642.673 625.084 681.005 625.074
C 698.477 625.07 716.088 624.23 733.545 624.938
C 729.586 634.041 725.345 643.162 721.116 652.158
C 720.713 652.464 719.796 652.283 719.321 652.284
C 717.713 652.287 716.105 652.28 714.497 652.281
C 708.331 652.287 702.164 652.285 695.998 652.284
C 671.998 652.278 647.998 652.297 623.998 652.297
C 549.332 652.297 474.665 652.419 399.998 652.346
C 378.498 652.325 356.997 652.254 335.497 652.248
C 329.164 652.247 322.831 652.243 316.498 652.236
C 314.37 652.233 310.702 652.921 308.768 652.115
C 305.647 643.092 301.521 633.943 297.332 625.37 Z"
opacity="1" fill="rgb(158,121,83)" fill-rule="evenodd" />
<path d="
M 305.119 685.492
C 308.705 681.715 311.795 677.771 314.745 673.481
C 316.368 671.119 317.616 668.448 319.405 666.211
C 323.417 665.51 327.937 666.034 332.005 666.033
C 339.839 666.031 347.672 666.04 355.505 666.04
C 379.844 666.04 404.174 665.964 428.504 665.964
C 492.34 665.964 556.173 666.014 620.004 665.954
C 640.837 665.934 661.671 665.976 682.504 665.965
C 691.997 665.96 701.711 666.653 711.178 666.058
C 713.431 668.154 714.742 671.834 716.459 674.4
C 719.334 678.694 722.548 682.621 725.99 686.465
C 725.073 687.882 723.553 688.888 722.342 690.037
C 720.621 691.671 719.05 693.479 717.196 694.969
C 716.124 695.341 714.799 695.152 713.677 695.15
C 711.235 695.146 708.793 695.134 706.351 695.128
C 698.569 695.109 690.788 695.116 683.006 695.118
C 656.34 695.125 629.673 695.132 603.007 695.112
C 536.84 695.064 470.672 695.029 404.506 695.126
C 383.839 695.156 363.173 695.103 342.507 695.098
C 336.173 695.096 329.839 695.107 323.505 695.104
C 320.49 695.103 316.806 695.684 313.88 694.907
C 311.845 693.535 310.372 691.213 308.641 689.483
C 307.47 688.311 305.784 687.022 305.119 685.492 Z"
opacity="1" fill="rgb(158,121,82)" fill-rule="evenodd" />
<path d="
M 353.398 431.601
C 354.071 428.44 354.214 425.196 355.037 422.047
C 356.628 415.96 358.993 410.327 362.146 404.891
C 373.275 385.7 396.677 375.204 418.25 375.81
C 432.088 376.199 446.927 380.69 457.67 389.653
C 460.381 391.915 463.07 394.052 465.336 396.786
C 465.618 397.126 467.39 399.224 467.162 399.508
C 465.846 399.875 464.094 399.656 462.721 399.701
C 460.358 399.779 458.02 400.025 455.67 400.269
C 449.646 400.895 443.585 402.595 437.925 404.717
C 421.18 410.996 406.818 424.074 400.881 441.139
C 397.329 451.346 396.684 462.29 397.468 473.006
C 398.996 493.895 404.435 514.018 410.562 533.959
C 412.506 540.286 414.974 546.559 417.416 552.708
C 418.332 555.015 419.565 557.242 420.326 559.604
C 420.434 559.941 421.342 561.76 421.008 561.875
C 418.169 560.225 416.006 557.263 413.616 555.056
C 406.89 548.847 400.752 541.81 395.084 534.636
C 384.745 521.548 375.592 507.523 367.97 492.672
C 358.309 473.848 351.106 453.067 353.398 431.601 Z"
opacity="1" fill="rgb(158,121,83)" fill-rule="evenodd" />
<path d="
M 463.783 358.013
C 467.824 356.297 471.435 353.911 475.238 351.75
C 476.14 351.238 478.379 349.393 479.385 349.815
C 481.238 355.766 483.974 361.062 487.99 365.855
C 490.713 369.104 494.273 371.886 497.988 373.909
C 501.295 375.711 504.867 377.074 508.578 377.753
C 512.341 378.441 516.153 378.73 519.958 378.194
C 535.324 376.028 546.779 363.432 551.375 349.217
C 552.922 349.498 554.321 350.652 555.66 351.434
C 558.163 352.895 560.661 354.346 563.232 355.684
C 564.164 356.169 566.659 356.821 567.064 357.816
C 564.124 377.714 553.028 395.715 535.262 405.723
C 536.894 407.676 537.939 410.581 538.87 412.936
C 540.363 416.714 541.726 420.504 543.031 424.347
C 548.585 440.705 552.124 457.847 553.414 475.071
C 553.816 480.431 554.133 485.79 554.233 491.169
C 554.264 492.823 554.332 494.48 554.336 496.132
C 554.337 496.452 554.598 498.738 554.52 498.724
C 551.607 494.588 546.407 491.588 542.094 489.152
C 526.881 480.56 508.615 480.273 492.759 487.462
C 488.398 489.439 484.469 492.092 480.71 495.035
C 479.357 496.094 477.939 498.175 476.418 498.856
C 476.341 477.248 479.302 455.011 484.769 434.126
C 486.56 427.285 488.723 420.581 491.294 413.996
C 492.04 412.085 492.73 410.151 493.744 408.361
C 494.112 407.71 495.064 406.829 495.064 406.09
C 491.521 402.737 487.092 400.401 483.546 396.954
C 474.977 388.622 469.167 378.155 466.075 366.629
C 465.352 363.934 463.819 360.806 463.783 358.013 Z"
opacity="1" fill="rgb(159,122,83)" fill-rule="evenodd" />
<path d="
M 474.911 332.599
C 478.529 323.863 480.911 312.831 477.518 303.631
C 483.397 304.048 489.269 304.142 495.163 304.125
C 497.625 304.118 500.429 304.514 502.851 304.109
C 503.011 303.759 502.506 302.838 502.412 302.454
C 502.025 300.865 501.526 299.3 501.032 297.74
C 499.065 291.528 496.627 285.425 494.275 279.368
C 502.48 278.989 510.783 279.433 519 279.378
C 522.835 279.352 526.669 279.357 530.504 279.371
C 532.265 279.377 534.178 279.111 535.919 279.356
C 532.487 287.285 530.392 295.74 527.128 303.716
C 529.13 304.262 531.912 303.771 534.003 303.774
C 538.835 303.781 543.665 303.794 548.495 303.656
C 549.845 303.617 551.145 303.574 552.469 303.273
C 553.233 303.099 554.12 302.558 554.875 302.854
C 554.332 305.22 553.606 307.507 553.321 309.931
C 552.376 317.995 553.841 325.625 556.789 333.11
C 550.7 332.447 544.656 332.308 538.496 332.282
C 535.323 332.269 532.067 332.065 528.912 332.442
C 528.386 337.224 528.761 342.193 528.698 347.003
C 528.655 350.382 528.55 353.753 526.749 356.73
C 521.939 364.681 507.904 364.852 502.917 356.937
C 500.157 352.555 500.276 347.257 500.267 342.279
C 500.261 339.057 500.115 335.784 500.246 332.571
C 494.208 332.598 488.141 332.181 482.106 332.44
C 479.627 332.546 477.069 333.153 474.629 333.166
C 474.723 332.977 474.817 332.788 474.911 332.599 Z"
opacity="1" fill="rgb(158,122,84)" fill-rule="evenodd" />
<path d="
M 484.368 521.581
C 485.254 518.151 486.31 514.948 488.172 511.898
C 492.479 504.846 500.508 500.364 508.476 498.882
C 526.314 495.563 547.263 507.951 546.829 527.534
C 546.604 537.665 540.51 547.446 532.579 553.467
C 530.677 554.911 528.577 556.019 526.498 557.173
C 526.049 557.422 524.816 558.394 524.31 558.186
C 525.738 554.047 527.246 550.326 527.367 545.857
C 527.585 537.829 523.09 527.392 513.263 529.022
C 511.777 529.269 510.493 529.746 509.241 530.595
C 500.792 536.327 501.562 550.917 506.227 558.723
C 505.392 558.655 504.385 557.806 503.689 557.367
C 501.909 556.243 500.183 555.115 498.456 553.912
C 488.55 547.013 482.307 533.568 484.368 521.581 Z"
opacity="1" fill="rgb(158,122,83)" fill-rule="evenodd" />
<path d="
M 564.33 398.7
C 565.481 397.448 566.363 396.001 567.585 394.779
C 573.616 388.744 580.929 383.553 588.888 380.422
C 613.156 370.875 644.262 375.462 662.007 395.508
C 667.503 401.717 671.507 408.966 674.216 416.772
C 678.741 429.806 678.254 444.764 675.472 458.101
C 669.857 485.024 654.763 510.359 638.073 531.885
C 632.148 539.528 625.778 547.093 618.614 553.612
C 616.124 555.879 613.461 559.004 610.358 560.415
C 610.146 559.595 611.371 557.46 611.743 556.638
C 613.051 553.742 614.156 550.751 615.311 547.79
C 619.636 536.695 623.088 525.267 626.064 513.744
C 627.357 508.735 628.37 503.67 629.435 498.61
C 635.187 471.275 637.44 437.793 614.088 417.789
C 609.731 414.057 605.08 410.858 599.919 408.332
C 593.183 405.035 585.825 402.479 578.465 401.01
C 573.805 400.08 569.1 399.724 564.428 398.963
C 564.395 398.875 564.362 398.787 564.33 398.7 Z"
opacity="1" fill="rgb(158,121,83)" fill-rule="evenodd" />
<path d="
M 673.024 387.661
C 685.655 390.168 697.763 395.108 709.174 400.988
C 728.696 411.046 746.201 424.435 760.881 440.749
C 766.55 447.05 771.787 453.747 776.253 460.967
C 777.298 462.656 778.368 464.326 779.322 466.071
C 779.719 466.796 780.5 467.706 780.554 468.56
C 780.596 469.217 779.837 470.141 779.521 470.672
C 778.647 472.14 777.819 473.639 776.909 475.086
C 773.352 480.736 769.88 486.44 766.217 492.024
C 754.235 510.289 741.287 527.485 726.951 543.951
C 723.012 548.476 718.71 552.72 714.416 556.906
C 712.825 558.457 710.885 561.147 708.827 562.004
C 708.845 561.042 709.389 560.232 709.668 559.334
C 710.42 556.916 711.385 554.563 712.278 552.192
C 714.372 546.636 716.271 540.962 717.979 535.276
C 724.226 514.482 728.984 492.232 724.806 470.546
C 720.994 450.758 710.441 432.578 697.573 417.312
C 693.246 412.178 688.677 407.238 684.068 402.358
C 679.908 397.953 675.315 393.345 673.024 387.661 Z"
opacity="1" fill="rgb(157,121,83)" fill-rule="evenodd" />

</svg>