<svg xmlns="http://www.w3.org/2000/svg"
shape-rendering="geometricPrecision"
width="4000" height="4000" viewBox="0 0 1024 1024"><rect width="100%" height="100%" fill="#E0E1E3" />
  <metadata>null</metadata>

<path d="
M 48.468 587.118
C 49.227 582.801 49.523 578.27 49.966 573.902
C 50.156 572.022 49.886 569.699 51.014 568.094
C 56.51 566.993 62.914 567.773 68.509 567.78
C 80.009 567.794 91.518 567.91 103.017 567.709
C 107.346 567.634 111.673 567.74 116.006 567.74
C 116.863 567.74 119.525 567.272 120.047 567.823
C 120.681 572.237 120.624 576.771 121.21 581.209
C 121.656 584.585 122.806 588.568 122.454 591.97
C 122.088 592.162 121.829 592.2 121.467 591.986
C 118.934 582.563 115.959 572.151 105.307 569.175
C 103.239 568.598 101.041 568.655 98.914 568.634
C 96.556 568.612 92.907 567.866 90.898 569.241
C 90.524 587.476 90.772 605.757 90.683 624.003
C 90.659 628.835 90.638 633.669 90.635 638.502
C 90.634 641.005 90.266 643.813 91.551 646.07
C 92.36 647.49 93.958 649.892 95.648 650.344
C 96.656 650.614 98.018 650.853 99.058 650.831
C 99.861 650.813 100.618 650.481 101.34 650.963
C 101.26 651.218 99.786 651.125 99.516 651.135
C 97.676 651.199 95.839 651.077 94.003 651.147
C 87.712 651.389 81.305 651.424 75.012 651.279
C 73.195 651.237 69.943 651.901 68.348 651.012
C 70.324 650.528 72.533 650.87 74.359 649.753
C 78.703 647.097 78.567 642.821 78.586 638.302
C 78.602 634.536 78.596 630.768 78.59 627.001
C 78.571 613.836 78.603 600.67 78.603 587.504
C 78.603 583.367 78.617 579.231 78.592 575.094
C 78.58 573.02 78.23 570.861 78.511 568.806
C 76.605 568.475 74.432 568.668 72.498 568.702
C 70.445 568.739 68.058 568.454 66.052 568.933
C 60.044 570.37 55.227 574.018 52.447 579.529
C 51.076 582.248 50.154 585.146 49.441 588.095
C 49.214 589.034 49.292 590.879 48.448 591.465
C 47.885 590.161 48.251 588.479 48.468 587.118 Z"
opacity="1" fill="rgb(26,56,75)" fill-rule="evenodd" />
<path d="
M 122.989 650.493
C 125.489 649.914 127.464 649.488 129.641 648.039
C 131.693 646.674 132.784 644.523 133.892 642.408
C 136.13 638.139 137.63 633.518 139.415 629.049
C 145.94 612.71 152.601 596.325 159.322 580.128
C 161.352 575.237 164.059 570.538 165.802 565.541
C 167.554 566.438 168.101 568.749 168.809 570.463
C 170.708 575.059 172.417 579.727 174.287 584.334
C 180.794 600.364 186.721 616.643 193.185 632.697
C 194.951 637.083 196.374 641.822 198.918 645.838
C 199.942 647.454 201.383 649.393 203.134 650.286
C 205.321 651.401 208.588 650.64 210.944 650.596
C 215.477 650.513 219.653 649.684 223.428 647.021
C 225.958 645.237 227.616 642.429 229.456 640.006
C 233.162 635.127 236.595 630.048 240.07 625.002
C 242.383 621.643 245.164 618.456 247.203 614.927
C 247.705 614.059 249.643 612.552 249.257 611.609
C 244.778 603.834 239.656 596.389 234.93 588.759
C 230.828 582.135 227.574 575.289 221.535 570.149
C 220.206 569.017 218.945 568.659 217.246 568.444
C 216.417 568.338 215.073 568.477 214.371 568.013
C 216.802 567.217 219.978 567.7 222.506 567.759
C 227.98 567.886 233.532 567.895 239.006 567.743
C 241.132 567.684 243.239 567.704 245.365 567.736
C 246.28 567.749 247.2 567.392 247.97 567.983
C 247.482 568.543 246.027 568.289 245.322 568.406
C 242.528 568.87 240.382 568.997 239.319 572.064
C 239.649 574.864 242.818 578.156 244.266 580.549
C 247.234 585.453 250.206 590.354 253.22 595.23
C 254.578 597.428 255.879 600.025 257.53 601.997
C 258.382 601.542 258.55 600.774 259.113 600.052
C 260.139 598.734 261.184 597.43 262.211 596.114
C 265.834 591.471 269.239 586.63 272.536 581.746
C 273.9 579.727 275.567 577.236 275.07 574.661
C 274.651 572.495 272.731 569.644 270.618 568.826
C 269.509 568.396 268.216 568.314 267.042 568.167
C 266.964 568.157 265.975 568.034 266 567.885
C 266.057 567.546 267.416 567.637 267.637 567.644
C 269.094 567.695 270.545 567.813 272.003 567.809
C 276.335 567.794 280.668 567.96 285 567.839
C 287.348 567.774 290.163 567.367 292.455 567.936
C 291.3 568.626 289.751 568.391 288.522 568.885
C 284.92 570.332 281.522 573.182 278.838 575.931
C 276.069 578.764 274.064 582.305 271.762 585.504
C 268.906 589.473 266 593.462 262.955 597.289
C 261.401 599.242 260.106 601.341 258.278 603.066
C 258.363 604.245 259.872 605.874 260.531 606.898
C 262.62 610.147 264.804 613.333 266.863 616.602
C 271.302 623.649 275.612 630.776 280.172 637.746
C 282.836 641.817 285.365 646.354 289.402 649.249
C 291.421 650.697 293.873 649.887 295.882 650.96
C 295.669 651.296 294.122 651.134 293.776 651.148
C 291.692 651.231 289.585 651.109 287.499 651.098
C 280.996 651.065 274.496 651.142 268.001 650.892
C 265.89 650.811 263.672 651.455 261.591 650.906
C 262.8 649.817 266.539 649.879 268.207 649.561
C 271.489 647.018 268.92 643.602 267.287 640.889
C 263.296 634.257 259.395 627.584 255.337 620.991
C 254.093 618.97 252.656 617.048 251.465 615
C 251.03 614.252 250.803 613.236 249.883 613.372
C 245.609 620.38 240.382 626.991 235.725 633.772
C 233.947 636.361 231.095 639.389 230.457 642.535
C 229.853 645.508 232.671 648.967 235.256 650.136
C 236.106 650.52 237.242 650.618 238.158 650.741
C 238.597 650.801 239.06 650.795 239.495 650.883
C 239.656 650.916 240.107 651.022 239.95 651.071
C 238.163 651.634 235.642 651.073 233.792 650.968
C 231.572 650.841 229.231 651.107 226.997 651.132
C 216.812 651.245 206.677 651.255 196.498 651.23
C 191.501 651.218 186.507 651.188 181.512 651.323
C 179.94 651.366 178.367 651.324 176.797 651.268
C 176.124 651.243 175.452 651.262 174.781 651.24
C 174.547 651.233 173.9 651.172 174.104 651.057
C 175.949 650.013 179.278 651.057 181.35 650.392
C 182.345 649.431 183.371 648.389 184.271 647.339
C 184.553 644.14 182.962 640.334 181.867 637.384
C 179.732 631.632 177.821 625.198 175.057 619.76
C 171.676 620.268 167.924 619.812 164.498 619.817
C 157.978 619.826 151.438 619.919 144.922 619.686
C 143.17 623.482 141.911 627.501 140.375 631.392
C 137.851 637.784 134.025 644.893 140.729 650.131
C 142.179 651.264 144.755 650.496 146.413 651.027
C 146.326 651.237 145.475 651.242 145.296 651.256
C 143.873 651.364 142.425 651.379 141 651.296
C 136.86 651.055 132.662 651.153 128.512 651.118
C 126.676 651.102 124.543 651.429 122.759 651.01
C 122.836 650.837 122.912 650.665 122.989 650.493 Z
M 145.524 618.137
C 145.504 618.344 145.484 618.552 145.464 618.759
C 152.299 618.884 159.155 618.895 166.003 618.858
C 168.757 618.842 171.773 619.343 174.489 618.969
C 174.201 617.532 173.295 616.065 172.737 614.705
C 171.756 612.312 170.868 609.868 169.924 607.46
C 167.766 601.958 165.959 596.316 163.719 590.845
C 162.838 588.693 162.048 586.511 161.114 584.381
C 160.811 583.691 160.863 582.375 159.948 582.38
C 158.075 586.178 156.877 590.4 155.18 594.296
C 151.76 602.153 148.778 610.216 145.524 618.137 Z"
opacity="1" fill="rgb(30,56,77)" fill-rule="evenodd" />
<path d="
M 304.461 650.485
C 306.509 650.192 309.079 650.661 310.926 649.495
C 313.665 647.765 314.44 644.512 314.609 641.549
C 314.831 637.662 314.777 633.76 314.737 629.869
C 314.564 612.862 314.878 595.85 314.692 578.847
C 314.658 575.718 314.238 571.9 311.616 569.74
C 310.54 568.854 309.325 568.485 307.958 568.331
C 307.711 568.303 305.964 568.023 306.026 567.971
C 306.982 567.18 309.577 567.714 310.743 567.672
C 315.812 567.487 320.928 567.755 326.004 567.723
C 329.011 567.704 331.992 567.558 334.996 567.751
C 335.368 567.775 337.729 567.632 337.476 568.138
C 335.493 568.316 333.355 568.27 331.438 568.832
C 329.925 570.454 328.096 572.399 327.393 574.545
C 326.918 575.993 327.08 577.773 327.073 579.279
C 327.058 582.212 327.102 585.145 327.092 588.079
C 327.05 600.882 326.954 613.694 326.946 626.505
C 326.943 631.151 326.497 636.03 327.056 640.643
C 327.231 642.082 326.969 643.56 327.574 644.935
C 328.393 646.796 330.548 649.629 332.611 650.086
C 333.911 650.374 336.491 649.83 337.465 650.632
C 337.415 651.308 334.752 650.996 334.145 651.012
C 330.535 651.108 326.885 651.045 323.256 651.073
C 318.482 651.11 313.668 651.256 308.904 651.101
C 307.779 651.065 305.072 651.641 304.461 650.485 Z"
opacity="1" fill="rgb(34,60,80)" fill-rule="evenodd" />
<path d="
M 349.75 379
C 359.585 361.017 377.449 346.879 395.769 338.299
C 400.042 336.297 404.404 334.599 408.973 333.398
C 410.597 332.971 412.698 331.942 414.385 332.357
C 413.921 334.436 411.96 335.942 410.536 337.422
C 407.51 340.566 404.447 343.657 401.504 346.883
C 393.841 355.281 387.272 365.084 383.924 376.029
C 379.331 391.044 382.573 406.394 386.973 421.037
C 387.932 424.228 389.152 427.402 390.435 430.478
C 391.156 432.206 392.274 434.075 392.41 435.974
C 390.436 434.78 388.841 432.739 387.313 431.043
C 385.046 428.526 382.691 426.089 380.398 423.596
C 375.217 417.966 371.068 411.758 366.503 405.654
C 360.438 397.545 353.836 388.875 349.688 379.586
C 349.709 379.391 349.729 379.196 349.75 379 Z"
opacity="1" fill="rgb(159,122,84)" fill-rule="evenodd" />
<path d="
M 362.577 433.13
C 368.017 434.87 372.433 439.39 377.223 442.361
C 388.665 449.456 402.177 457.974 416.203 454.177
C 420.721 452.954 424.858 450.565 428.675 447.919
C 432.996 444.923 436.218 441.317 439.437 437.22
C 441.817 438.157 444.027 440.378 446.127 441.848
C 450.421 444.855 454.613 447.91 459.345 450.219
C 472.286 456.532 486.274 454.837 498.144 447.047
C 502.337 444.295 505.701 440.335 509.879 437.63
C 510.693 437.594 511.04 438.182 511.638 438.68
C 513 439.814 514.331 440.989 515.708 442.106
C 520.283 445.815 525.016 449.314 530.546 451.458
C 536.323 453.697 542.626 454.952 548.827 454.107
C 555.805 453.156 562.716 449.663 568.656 446.04
C 572.923 443.438 576.475 439.951 580.516 437.08
C 582.287 439.858 585.252 442.319 587.786 444.4
C 590.724 446.811 593.667 448.981 597.077 450.699
C 609.844 457.132 622.718 454.252 634.659 447.506
C 640.664 444.114 646.404 440.301 652.081 436.4
C 653.137 435.674 656.65 432.509 657.886 433.4
C 657.725 436.843 655.668 440.364 654.463 443.55
C 652.503 448.732 650.559 453.932 648.407 459.04
C 647.565 461.036 647.054 463.429 645.787 465.206
C 643.64 465.554 641.184 465.242 639 465.248
C 634.5 465.26 629.999 465.253 625.499 465.257
C 611.499 465.271 597.499 465.219 583.499 465.243
C 539.5 465.319 495.5 465.234 451.501 465.223
C 433.502 465.219 415.504 465.131 397.505 465.07
C 392.225 465.052 386.946 464.993 381.671 464.912
C 379.405 464.877 375.95 465.237 373.867 464.332
C 370.128 453.974 365.657 443.685 362.577 433.13 Z"
opacity="1" fill="rgb(160,123,84)" fill-rule="evenodd" />
<path d="
M 377.954 473.68
C 387.283 473.727 396.659 473.264 406.004 473.264
C 460.17 473.264 514.338 473.15 568.504 473.282
C 586.17 473.325 603.837 473.358 621.503 473.314
C 626.337 473.303 631.172 473.397 636.005 473.361
C 637.767 473.348 640.812 472.65 642.396 473.407
C 640.736 476.453 639.163 479.65 637.803 482.846
C 636.897 484.975 636.248 487.443 635.034 489.413
C 633.728 490.113 630.993 489.578 629.505 489.568
C 625.004 489.537 620.502 489.521 616.001 489.528
C 599.333 489.552 582.666 489.714 565.999 489.726
C 531.667 489.751 497.334 489.535 463.003 489.661
C 437.071 489.756 411.042 490.285 385.12 489.718
C 383.136 484.209 380.89 478.757 377.954 473.68 Z"
opacity="1" fill="rgb(157,121,84)" fill-rule="evenodd" />
<path d="
M 383.404 508.959
C 384.797 507.511 386.333 506.26 387.49 504.595
C 388.893 502.577 389.942 500.288 391.515 498.391
C 392.798 497.815 394.987 497.98 396.414 497.939
C 399.94 497.837 403.473 497.865 407 497.851
C 419.334 497.8 431.667 497.881 444.001 497.898
C 486.835 497.958 529.669 497.91 572.502 497.915
C 586.169 497.917 599.835 497.951 613.502 497.904
C 617.132 497.892 620.765 497.879 624.395 497.944
C 625.634 497.966 627.947 497.69 628.969 498.352
C 630.319 500.267 631.377 502.388 632.764 504.288
C 634.306 506.402 636.197 508.177 637.87 510.177
C 637.637 510.981 636.267 511.715 635.661 512.259
C 634.654 513.163 633.601 514.686 632.322 515.197
C 630.521 515.917 627.898 515.376 625.997 515.359
C 614.001 515.251 601.998 515.456 590.001 515.412
C 539.167 515.223 488.331 515.438 437.496 515.344
C 423.497 515.319 409.494 515.254 395.496 515.268
C 393.365 515.27 390.485 515.765 388.43 515.148
C 387.113 514.752 385.762 512.946 384.894 511.953
C 384.254 511.22 383.122 510.299 383.082 509.34
C 383.189 509.213 383.297 509.086 383.404 508.959 Z"
opacity="1" fill="rgb(161,125,85)" fill-rule="evenodd" />
<path d="
M 386.395 567.947
C 389.355 567.296 392.496 567.576 395.507 567.598
C 400.003 567.63 404.509 567.744 409.004 567.727
C 412.032 567.715 416.052 566.668 418.96 567.675
C 418.962 568.147 417.921 568.01 417.606 568.03
C 416.139 568.127 413.59 567.98 412.39 568.921
C 407.964 572.392 408.306 578.225 408.28 583.193
C 408.216 595.962 408.292 608.734 408.364 621.503
C 408.405 628.741 408.049 636.068 408.643 643.283
C 408.843 645.709 410.473 648.95 412.586 650.315
C 413.338 650.801 416.6 650.287 416.515 651.347
C 415.002 651.988 413.088 651.316 411.488 651.361
C 406.662 651.496 401.827 651.442 396.999 651.453
C 394.666 651.459 392.334 651.544 390.003 651.577
C 389.505 651.584 386.428 651.584 386.73 651.228
C 388.111 650.569 389.521 651.054 390.944 650.685
C 392.81 650.201 394.994 647.37 395.591 645.66
C 396.267 643.722 396.124 641.464 396.152 639.443
C 396.2 635.964 396.221 632.485 396.23 629.005
C 396.26 616.837 396.118 604.668 396.085 592.5
C 396.074 588.339 396.109 584.178 396.103 580.017
C 396.1 577.901 396.328 575.26 395.48 573.277
C 394.747 571.564 392.815 569.087 391.023 568.443
C 389.562 567.919 387.798 568.62 386.395 567.947 Z"
opacity="1" fill="rgb(32,61,79)" fill-rule="evenodd" />
<path d="
M 411.946 359.608
C 413.013 353.118 413.995 347.214 417.575 341.472
C 419.496 338.391 422.114 335.964 424.964 333.753
C 435.005 325.965 446.852 323.536 459.315 325.94
C 464.945 327.026 470.011 329.638 474.713 332.862
C 476.859 334.334 479.399 336.284 480.58 338.683
C 478.292 339.082 475.957 339.009 473.657 339.292
C 469.085 339.856 464.56 341.062 460.393 343.029
C 457.294 344.491 454.665 346.3 452.042 348.481
C 446.762 352.871 442.715 358.665 440.635 365.238
C 437.508 375.116 439.063 386.845 441.095 396.81
C 442.883 405.577 445.029 414.263 448.218 422.638
C 449.466 425.916 450.775 429.168 452.046 432.433
C 452.19 432.802 453.341 435.302 453.072 435.433
C 440.771 424.013 431.06 411.236 422.785 396.653
C 416.364 385.337 411.155 372.895 411.946 359.608 Z"
opacity="1" fill="rgb(159,122,84)" fill-rule="evenodd" />
<path d="
M 430.67 651.323
C 431.055 651.099 430.852 651.225 431.277 650.939
C 432.293 650.598 433.398 650.711 434.407 650.354
C 437.589 649.225 440.381 645.233 440.881 642.002
C 441.69 636.785 440.945 631.267 440.92 626.005
C 440.873 616.033 440.985 606.059 440.95 596.094
C 440.933 590.895 440.922 585.697 440.874 580.499
C 440.852 578.104 441.322 575.38 440.749 573.035
C 440.249 570.987 438.437 569.035 436.42 568.499
C 435.315 568.205 434.101 568.366 433.069 567.824
C 434.444 566.912 437.299 567.406 438.94 567.437
C 443.78 567.53 448.706 567.648 453.543 567.517
C 457.155 573.542 459.626 580.441 462.482 586.849
C 467.808 598.796 473.119 610.751 478.361 622.736
C 480.228 627.005 481.499 631.659 483.441 635.842
C 483.841 636.171 484.186 635.797 484.254 635.349
C 484.61 632.989 485.599 630.922 486.511 628.715
C 488.643 623.555 490.581 618.3 492.604 613.095
C 498.524 597.864 505.723 583.084 511.316 567.753
C 517.261 567.959 523.265 567.528 529.215 567.572
C 530.507 567.581 531.79 567.582 533.074 567.737
C 533.192 567.751 534.541 567.826 534.508 568.027
C 534.498 568.092 533.625 568.123 533.589 568.124
C 532.439 568.181 531.292 568.226 530.164 568.393
C 527.897 568.73 525.599 571.534 524.877 573.598
C 524.124 575.75 524.428 578.491 524.393 580.738
C 524.315 585.703 524.355 590.678 524.378 595.644
C 524.429 606.595 524.327 617.548 524.301 628.499
C 524.289 633.524 523.387 639.506 524.491 644.418
C 524.952 646.471 527.077 650.006 529.174 650.76
C 530.596 651.271 532.497 650.798 534.004 651.039
C 534.161 651.608 533.368 651.526 532.96 651.551
C 531.701 651.63 530.474 651.551 529.216 651.512
C 523.942 651.351 518.57 651.321 513.291 651.484
C 510.852 651.56 508.442 651.559 506.005 651.519
C 505.189 651.506 504.374 651.534 503.559 651.527
C 503.248 651.524 502.445 651.587 502.643 651.347
C 503.512 650.289 505.275 651.047 506.443 650.737
C 508.777 650.116 510.829 648.444 511.716 646.125
C 512.504 644.064 512.306 641.571 512.3 639.409
C 512.288 635.774 512.256 632.139 512.252 628.504
C 512.234 615.501 512.066 602.5 512.079 589.498
C 512.083 585.149 512.011 580.81 511.94 576.465
C 511.918 575.083 512.372 572.69 511.525 571.653
C 508.214 576.584 506.622 583.196 504.339 588.669
C 497.647 604.709 491.653 621.046 484.545 636.902
C 482.463 641.546 481.263 647.06 478.346 651.281
C 477.819 651.547 477.235 651.489 476.666 651.38
C 475.54 650.411 475.119 648.264 474.542 646.914
C 472.899 643.069 471.438 639.142 469.739 635.32
C 465.183 625.075 460.761 614.734 456.323 604.435
C 454.595 600.426 453.148 596.278 451.27 592.334
C 449.084 587.739 447.162 583.034 445.044 578.419
C 444.466 577.157 443.955 574.582 442.534 574.112
C 443.25 591.347 442.757 608.737 442.657 625.993
C 442.609 634.222 440.308 645.867 449.3 650.586
C 451.052 651.505 453.592 650.697 455.499 651.021
C 455.322 651.615 454.402 651.466 453.903 651.5
C 452.479 651.595 451.097 651.577 449.674 651.484
C 444.868 651.17 440.009 651.799 435.222 651.445
C 433.768 651.337 432.074 651.813 430.67 651.323 Z"
opacity="1" fill="rgb(30,58,79)" fill-rule="evenodd" />
<path d="
M 478.954 314.356
C 482.555 313.419 484.892 310.111 488.598 309.664
C 490.612 320.186 502.108 327.508 512.465 326.611
C 516.711 326.244 520.629 324.168 523.884 321.509
C 526.891 319.052 529.012 316.144 530.594 312.607
C 530.82 312.101 531.692 309.002 532.2 308.938
C 532.636 308.884 533.977 309.871 534.38 310.134
C 535.968 311.169 537.526 312.258 539.275 313.009
C 539.947 313.297 541.304 313.483 541.756 314.032
C 540.993 318.004 540.029 322.191 538.301 325.863
C 534.834 333.235 529.006 338.424 522.398 342.875
C 524.409 346.228 525.6 349.818 526.89 353.49
C 530.262 363.091 531.886 372.874 533.014 382.938
C 533.432 386.669 533.601 390.382 533.721 394.131
C 533.761 395.4 534.342 397.269 534.04 398.464
C 532.108 395.747 528.7 393.661 525.788 392.151
C 516.679 387.427 506.498 387.248 497.091 391.321
C 494.827 392.302 492.537 393.477 490.58 394.994
C 489.363 395.938 488.277 397.235 486.963 398.017
C 486.582 396.458 486.996 394.639 487.077 393.044
C 487.241 389.84 487.436 386.66 487.718 383.465
C 488.933 369.7 491.423 355.277 497.638 342.856
C 491.306 339.268 485.426 332.692 482.58 326.007
C 481.019 322.337 480.598 318.11 478.416 314.73
C 478.595 314.605 478.774 314.481 478.954 314.356 Z"
opacity="1" fill="rgb(162,124,85)" fill-rule="evenodd" />
<path d="
M 485.856 299.032
C 488.124 294.31 488.731 287.848 487.729 282.723
C 491.483 282.634 495.243 282.813 499.001 282.729
C 499.531 282.717 502.593 282.858 502.746 282.51
C 501.4 277.642 499.242 272.88 497.437 268.164
C 505.927 268.153 514.427 267.896 522.915 267.865
C 521.305 271.388 519.617 274.93 518.559 278.666
C 518.38 279.295 517.137 282.069 517.375 282.404
C 521.057 282.021 524.804 282.284 528.502 282.255
C 530.338 282.241 532.612 282.322 534.268 281.415
C 534.521 281.357 534.152 281.923 534.075 282.171
C 534.032 282.306 533.823 283.176 533.802 283.269
C 533.487 284.641 533.306 286.032 533.253 287.438
C 533.087 291.805 533.922 295.772 535.401 299.845
C 533.634 299.74 531.847 299.219 530.019 299.154
C 526.123 299.015 522.195 299.367 518.317 299.222
C 518.685 303.669 519.305 310.325 516.83 314.259
C 514.224 318.402 505.35 318.368 502.664 314.354
C 500.11 310.538 500.471 303.734 500.704 299.327
C 497.457 299.314 494.182 299.209 490.936 299.331
C 489.169 299.397 487.412 299.811 485.644 299.65
C 485.715 299.444 485.785 299.238 485.856 299.032 Z"
opacity="1" fill="rgb(161,123,84)" fill-rule="evenodd" />
<path d="
M 491.379 412.086
C 493.097 404.978 497.867 399.955 505.151 398.303
C 515.126 396.04 528.173 402.637 529.316 413.61
C 529.97 419.884 525.636 426.786 520.899 430.581
C 519.815 431.449 517.237 433.636 515.736 433.215
C 517.546 428.954 518.581 423.335 515.729 419.23
C 513.695 416.304 508.471 414.783 505.706 417.369
C 503.357 419.566 502.701 423.036 502.651 426.114
C 502.602 429.22 504.029 431.189 504.963 433.973
C 497.312 429.739 489.941 421.514 491.379 412.086 Z"
opacity="1" fill="rgb(158,123,86)" fill-rule="evenodd" />
<path d="
M 540.342 338.039
C 543.277 333.461 548.846 330.172 553.7 328.025
C 572.214 319.837 595.118 326.619 604.679 344.73
C 614.539 363.406 604.393 385.534 595.202 402.215
C 590.182 411.326 583.131 420.108 575.979 427.63
C 574.129 429.576 572.167 431.319 570.037 432.94
C 569.774 433.14 567.914 434.437 567.843 434.189
C 568.326 432.49 569.375 430.859 570.013 429.193
C 571.249 425.968 572.451 422.723 573.582 419.46
C 577.888 407.031 580.891 394.156 581.41 380.992
C 581.744 372.524 580.609 363.414 575.713 356.236
C 573.133 352.453 569.633 349.372 565.859 346.827
C 560.539 343.239 554.053 341.347 547.848 339.963
C 545.345 339.405 542.515 339.364 540.112 338.519
C 540.189 338.359 540.265 338.199 540.342 338.039 Z"
opacity="1" fill="rgb(160,123,84)" fill-rule="evenodd" />
<path d="
M 545.378 651.043
C 547.045 650.792 548.788 651.108 550.44 650.715
C 552.483 650.23 554.676 647.148 555.227 645.225
C 556.078 642.257 555.791 638.941 555.793 635.889
C 555.797 630.927 555.811 625.966 555.807 621.004
C 555.798 610.503 555.757 600.003 555.769 589.502
C 555.772 586.171 555.771 582.839 555.78 579.508
C 555.785 577.687 555.986 575.667 555.552 573.882
C 555.119 572.1 553.361 569.432 551.547 568.829
C 550.284 568.41 548.459 568.778 547.368 567.984
C 549.002 567.493 550.835 567.759 552.525 567.709
C 556.18 567.602 559.853 567.614 563.51 567.664
C 575.392 567.827 588.662 565.846 599.464 571.978
C 610.999 578.526 615.876 594.43 607.281 605.471
C 601.191 613.293 590.193 615.483 580.829 615.774
C 578.161 615.857 575.461 615.896 572.792 615.788
C 571.176 615.722 569.507 615.437 568.009 616.166
C 568.561 622.769 567.922 629.522 567.919 636.142
C 567.917 639.143 567.575 642.699 568.708 645.541
C 569.472 647.46 571.552 650.09 573.66 650.535
C 574.937 650.805 576.319 650.907 577.622 650.962
C 578.11 650.983 578.906 650.803 579.063 651.337
C 577.236 652.432 573.813 651.402 571.744 651.462
C 565.437 651.645 559.117 651.283 552.81 651.622
C 550.917 651.724 549.011 651.626 547.115 651.567
C 546.611 651.552 545.437 651.679 545.378 651.043 Z
M 568.329 570.137
C 567.696 576.129 568.206 582.471 568.184 588.5
C 568.152 597.254 567.782 606.083 568.168 614.829
C 572.375 614.891 576.844 615.449 581.033 614.778
C 585.427 614.074 590.176 611.058 592.987 607.695
C 596.023 604.063 597.047 599.614 597.401 594.993
C 597.961 587.67 597.152 579.26 591.38 573.995
C 586.861 569.872 580.901 568.617 575.016 568.608
C 572.749 568.604 570.495 568.341 568.333 569.052
C 568.412 569.872 568.438 569.511 568.329 570.137 Z"
opacity="1" fill="rgb(27,56,76)" fill-rule="evenodd" />
<path d="
M 606.195 331.708
C 610.959 332.679 615.66 334.506 620.16 336.316
C 635.426 342.453 649.19 351.871 659.912 364.433
C 662.947 367.989 666.001 371.49 668.521 375.449
C 669.308 376.686 670.873 378.559 671.059 380.038
C 671.146 380.732 669.99 381.808 669.621 382.363
C 668.341 384.29 667.04 386.198 665.785 388.141
C 660.487 396.343 654.777 404.063 649.074 411.967
C 644.52 418.279 639.342 424.159 633.909 429.737
C 632.595 431.086 631.32 432.468 629.944 433.754
C 629.32 434.336 628.746 435.192 627.902 435.418
C 628.058 433.666 629.358 431.444 629.956 429.752
C 631.225 426.156 632.498 422.531 633.547 418.864
C 637.733 404.225 640.395 388.416 635.272 373.643
C 631.921 363.977 626.43 355.125 619.325 347.779
C 616.24 344.59 613.089 341.476 610.124 338.175
C 608.412 336.269 606.572 334.305 606.195 331.708 Z"
opacity="1" fill="rgb(161,123,84)" fill-rule="evenodd" />
<path d="
M 621.015 651.437
C 625.021 650.505 628.305 650.21 630.415 646.172
C 631.061 644.935 630.853 643.343 630.944 641.994
C 631.204 638.173 631.159 634.337 631.163 630.507
C 631.177 617.838 631.148 605.173 631.232 592.505
C 631.262 587.87 631.316 583.224 631.158 578.592
C 631.096 576.749 631.242 574.111 630.241 572.499
C 629.29 570.969 627.324 568.792 625.482 568.617
C 624.671 568.541 623.865 568.355 623.056 568.316
C 622.719 568.3 621.808 568.273 622.076 568.067
C 622.587 567.673 624.144 567.75 624.766 567.735
C 627.007 567.682 629.263 567.769 631.507 567.766
C 640.008 567.754 648.506 567.709 657.007 567.738
C 662.842 567.758 668.672 567.75 674.507 567.786
C 676.244 567.796 679.841 567.133 681.345 567.975
C 681.317 573.466 681.666 579.066 682.425 584.495
C 682.555 585.43 683.873 589.027 682.975 589.731
C 682.024 589.467 681.917 586.076 681.567 585.184
C 679.922 580.996 678.131 576.074 674.53 573.154
C 665.969 566.211 653.558 569.024 643.363 568.757
C 642.973 573.133 643.209 577.612 643.225 582.002
C 643.257 590.715 643.41 599.451 643.288 608.161
C 643.759 608.818 644.864 608.35 645.607 608.318
C 647.734 608.226 649.882 608.359 652.013 608.329
C 654.897 608.289 658.148 608.507 660.971 607.845
C 667.045 606.418 671.663 599.793 671.334 593.771
C 672.231 593.881 671.918 596.613 671.884 597.262
C 671.665 601.412 671.297 605.499 671.303 609.669
C 671.308 613.389 671.421 617.049 671.667 620.748
C 671.719 621.538 672.236 624.431 671.118 624.366
C 670.374 623.368 670.765 621.237 670.612 620.013
C 670.388 618.227 669.556 616.71 668.622 615.196
C 667.075 612.688 665.079 610.488 662.367 609.204
C 660.614 608.374 658.012 608.969 656.145 609.033
C 651.848 609.179 647.496 608.811 643.223 609.263
C 643.601 618.306 643.245 627.447 643.225 636.499
C 643.216 640.963 642.485 646.378 644.451 650.525
C 649.226 650.416 654.031 650.299 658.812 650.367
C 664.092 650.443 668.947 650.903 673.717 648.184
C 677.975 645.756 680.747 641.285 682.808 636.983
C 684.087 634.314 684.379 631.434 684.8 628.539
C 685.585 631.215 684.778 633.85 684.385 636.513
C 683.674 641.334 683.002 646.372 682.751 651.232
C 669.784 652.047 656.481 651.531 643.492 651.248
C 638.031 651.129 632.557 651.382 627.1 651.386
C 625.064 651.387 623.059 651.683 621.015 651.437 Z"
opacity="1" fill="rgb(28,56,76)" fill-rule="evenodd" />
<path d="
M 698.362 650.958
C 700.238 650.537 702.451 650.737 704.235 650.102
C 705.482 648.919 706.93 647.345 707.634 645.76
C 708.48 643.854 708.285 641.537 708.287 639.504
C 708.29 636.17 708.284 632.837 708.28 629.504
C 708.263 612.234 708.933 594.778 708.132 577.529
C 707.992 574.514 707.05 570.991 704.378 569.182
C 703.403 568.522 701.801 568.597 700.657 568.534
C 700.46 568.523 698.958 568.59 699.183 568.279
C 700.57 567.448 702.457 567.756 704.013 567.789
C 707.172 567.856 710.345 567.736 713.504 567.711
C 722.673 567.637 731.972 567.129 741.068 568.402
C 746.354 569.143 751.855 570.724 755.999 574.241
C 765.308 582.14 764.959 596.787 755.926 604.736
C 752.111 608.094 747.418 609.132 742.781 610.764
C 749.531 618.999 754.935 628.377 760.819 637.231
C 763.61 641.43 766.057 646.675 770.543 649.348
C 772.292 650.39 774.085 650.402 775.942 651.13
C 775.988 651.292 774.204 651.326 773.998 651.326
C 772.196 651.334 770.397 651.323 768.595 651.326
C 764.778 651.333 758.929 652.346 755.683 649.944
C 750.465 646.082 747.515 638.642 744.174 633.236
C 741.088 628.243 737.906 623.337 734.605 618.487
C 733.162 616.366 731.073 614.28 729.929 612.018
C 727.669 611.235 723.292 611.592 721.004 612.242
C 720.275 612.953 720.554 613.912 720.559 614.891
C 720.57 617.094 720.6 619.297 720.602 621.501
C 720.604 626.668 720.623 631.835 720.634 637.002
C 720.643 641.842 720.521 646.553 724.362 650.148
C 725.919 651.022 729.11 649.849 730.361 651.011
C 730.087 651.397 728.745 651.238 728.332 651.258
C 726.55 651.345 724.775 651.221 722.993 651.213
C 717.667 651.188 712.33 651.17 707.004 651.249
C 704.364 651.288 700.873 651.837 698.362 650.958 Z
M 720.773 568.892
C 720.534 582.809 720.518 596.777 720.66 610.702
C 722.118 611.598 725.287 611.066 726.996 611.039
C 734.286 610.924 742.928 608.388 746.766 601.711
C 751.386 593.674 750.274 581.39 743.786 574.703
C 741.44 572.286 738.23 570.855 735.153 569.622
C 730.964 567.944 725.161 568.146 720.773 568.892 Z"
opacity="1" fill="rgb(29,56,76)" fill-rule="evenodd" />
<path d="
M 781.093 568.373
C 789.153 567.465 797.365 568.039 805.504 567.834
C 807.499 567.784 809.507 567.744 811.502 567.826
C 812.208 567.855 813.298 567.733 813.661 568.401
C 811.839 568.757 809.741 568.151 807.971 568.828
C 806.158 569.521 804.437 572.316 803.884 574.064
C 803.015 576.811 803.267 579.874 803.255 582.717
C 803.236 587.478 803.225 592.24 803.231 597.001
C 803.244 607.501 803.199 617.999 803.119 628.498
C 803.081 633.515 802.099 639.667 803.368 644.544
C 803.876 646.498 805.752 649.408 807.643 650.303
C 809.456 651.161 811.917 650.75 813.854 650.949
C 813.868 651.044 811.744 651.185 811.524 651.203
C 808.701 651.43 805.829 651.193 802.996 651.2
C 796.125 651.217 788.595 652.017 781.8 651.019
C 782.745 650.302 783.934 650.5 785.054 650.275
C 787.651 649.752 789.481 648.148 790.43 645.664
C 791.337 643.288 791.215 640.505 791.238 638
C 791.275 633.835 791.248 629.668 791.247 625.503
C 791.244 614.169 791.217 602.836 791.222 591.502
C 791.225 586.064 792.186 579.332 790.486 574.081
C 789.833 572.066 787.547 569.581 785.525 568.921
C 784.113 568.461 782.5 568.845 781.093 568.373 Z"
opacity="1" fill="rgb(28,55,76)" fill-rule="evenodd" />
<path d="
M 820.582 650.549
C 821.788 650.404 823.187 650.566 824.334 650.133
C 831.341 647.487 833.45 639.375 836.101 633.125
C 842.897 617.103 849.073 600.832 855.907 584.85
C 857.878 580.24 859.525 575.476 861.489 570.836
C 862.122 569.34 862.816 566.408 864.421 565.759
C 865.808 566.796 866.336 569.192 867.001 570.74
C 868.937 575.248 870.637 579.899 872.38 584.485
C 878.19 599.768 884.488 614.881 890.135 630.225
C 891.925 635.091 893.591 640.196 896.191 644.705
C 897.32 646.663 898.747 648.966 900.737 650.162
C 902.237 651.063 904.773 650.543 906.462 650.975
C 905.986 651.298 905.075 651.177 904.518 651.217
C 902.351 651.371 900.167 651.15 897.997 651.151
C 892.001 651.152 885.998 651.259 880.003 651.212
C 877.619 651.193 874.39 651.729 872.148 650.896
C 872.806 650.336 873.789 650.539 874.61 650.527
C 876.342 650.502 878.107 650.434 879.83 650.267
C 880.586 649.68 882.528 647.43 882.601 646.415
C 882.741 644.451 881.547 641.898 880.908 640.079
C 878.602 633.521 875.246 627.046 873.417 620.358
C 871.948 619.035 867.798 619.845 865.91 619.867
C 860.608 619.931 855.297 619.893 849.995 619.842
C 847.995 619.822 844.856 619.217 843.029 620.047
C 841.632 625.806 838.338 631.183 836.634 636.888
C 836.101 638.672 835.241 640.402 835.075 642.279
C 834.802 645.388 837.174 648.234 839.6 649.9
C 841.533 651.228 844.378 650.092 846.387 650.942
C 846.28 651.282 843.237 651.133 842.817 651.137
C 838.881 651.178 834.939 651.09 830.999 651.117
C 828.333 651.135 825.66 651.087 822.997 651.15
C 822.369 651.165 820.281 651.504 820.582 650.549 Z
M 844.423 617.039
C 844.244 617.63 844.21 618.023 844.225 618.647
C 846.906 619.602 850.673 618.935 853.494 618.919
C 859.811 618.884 866.136 618.883 872.446 619.092
C 872.863 616.745 870.672 613.685 869.912 611.5
C 867.452 604.43 864.561 597.472 861.88 590.482
C 860.977 588.126 860.349 583.649 858.327 582.076
C 856.361 585.799 855.265 589.9 853.671 593.795
C 850.513 601.51 847.542 609.314 844.423 617.039 Z"
opacity="1" fill="rgb(29,58,79)" fill-rule="evenodd" />
<path d="
M 913.558 650.561
C 917.252 649.973 921.264 651.002 923.233 646.78
C 924.41 644.257 924.273 641.224 924.268 638.504
C 924.26 634.17 924.253 629.837 924.238 625.503
C 924.199 614.013 924.246 602.522 924.251 591.032
C 924.253 585.655 925.213 579.492 924.156 574.203
C 923.782 572.332 921.483 569.304 919.56 568.831
C 918.653 568.608 915.495 569.013 915.217 568.046
C 917.534 567.291 920.571 567.821 923.001 567.817
C 928.49 567.81 934.019 567.943 939.502 567.74
C 941.274 567.674 943.085 567.7 944.856 567.767
C 945.416 567.788 946.485 567.595 946.505 568.356
C 944.9 568.944 942.96 568.344 941.293 568.933
C 940.397 569.25 939.772 570.113 939.161 570.791
C 934.572 576.413 936.481 586.013 936.442 592.822
C 936.401 600.055 936.674 607.267 936.603 614.499
C 936.488 626.265 935.974 638.205 936.558 649.963
C 940.49 650.276 944.554 649.993 948.503 649.99
C 952.221 649.987 956.349 650.454 960.01 649.769
C 965.114 648.815 969.525 645.187 972.154 640.847
C 973.282 638.986 974.456 636.941 975.134 634.865
C 975.834 632.717 975.68 630.411 976.456 628.29
C 977.297 629.721 976.695 632.016 976.493 633.615
C 975.987 637.614 975.185 641.596 974.829 645.614
C 974.714 646.916 974.893 649.96 973.664 650.773
C 962.763 651.565 951.814 650.894 940.883 650.83
C 937.269 650.809 933.628 651.205 929.994 651.197
C 926.414 651.189 922.786 651.015 919.212 651.159
C 917.582 651.225 914.906 651.615 913.433 650.813
C 913.475 650.729 913.516 650.645 913.558 650.561 Z"
opacity="1" fill="rgb(26,55,75)" fill-rule="evenodd" />

</svg>