<?xml version="1.0" encoding="UTF-8"?>
<svg version="1.1" xmlns="http://www.w3.org/2000/svg" width="577" height="432">
<path d="M0 0 C8.04707963 2.36678813 14.28665719 7.16014821 21 12 C21.99 12.66 22.98 13.32 24 14 C24 14.66 24 15.32 24 16 C24.54140625 16.10183594 25.0828125 16.20367187 25.640625 16.30859375 C28.60596581 17.17757607 31.05524946 18.55472291 33.75 20.0625 C34.73484375 20.61035156 35.7196875 21.15820312 36.734375 21.72265625 C37.85585937 22.35494141 37.85585937 22.35494141 39 23 C39 23.66 39 24.32 39 25 C39.680625 25.0825 40.36125 25.165 41.0625 25.25 C44.13505909 26.03448317 46.48792587 27.34995826 49.203125 28.95703125 C63.08144995 37.01249377 78.84205632 37.55981419 94.125 33.94921875 C98.22344828 32.59606259 101.42877996 30.38081336 105 28 C105.99 28 106.98 28 108 28 C108 27.34 108 26.68 108 26 C109.609375 24.88671875 109.609375 24.88671875 111.75 23.6875 C115.33878442 21.56081294 117.44375238 19.31365432 120 16 C120.99 16 121.98 16 123 16 C123 15.01 123 14.02 123 13 C124.375 11.3125 124.375 11.3125 126 10 C126.66 10 127.32 10 128 10 C128.33 9.01 128.66 8.02 129 7 C132.34249629 7.59687434 134.46436342 8.73603877 137 11 C137 11.66 137 12.32 137 13 C137.56332031 13.09925781 138.12664062 13.19851563 138.70703125 13.30078125 C141.4918389 14.14998154 143.33671592 15.47267683 145.6875 17.1875 C146.57050781 17.81785156 147.45351562 18.44820313 148.36328125 19.09765625 C149.9875537 20.26953874 151.61029107 21.44355656 153.23046875 22.62109375 C158.41338481 26.25574344 163.69753494 28.71911401 169.59375 31.01953125 C172 32 172 32 173 33 C185.01578896 36.8105627 201.5748685 36.86955785 213.0703125 31.58984375 C222.04132395 26.93467351 230.93261641 21.59347165 238.625 15 C241 13 241 13 243 13 C243.33 12.01 243.66 11.02 244 10 C245.375 8.3125 245.375 8.3125 247 7 C247.99 7 248.98 7 250 7 C250 7.66 250 8.32 250 9 C250.5775 9.268125 251.155 9.53625 251.75 9.8125 C254.05550043 11.02929189 256.02056192 12.30333879 258 14 C258 14.66 258 15.32 258 16 C258.57363281 16.27199219 259.14726562 16.54398437 259.73828125 16.82421875 C262.02298561 18.01194934 264.06937013 19.35025734 266.1875 20.8125 C282.4124582 31.72650625 298.51835674 37.7041738 318.26171875 34.46484375 C323.19045546 33.20688166 327.69016491 31.41001969 332.1484375 28.96484375 C334 28 334 28 336.43359375 27.046875 C343.88507826 24.00730445 350.50816113 19.04308474 356.96875 14.3203125 C359 13 359 13 361 13 C361.33 12.01 361.66 11.02 362 10 C362.66 10 363.32 10 364 10 C364.33 9.01 364.66 8.02 365 7 C369.25177923 7.47241991 371.29969203 9.84964071 374 13 C374 13.99 374 14.98 374 16 C374.99 16 375.98 16 377 16 C377 16.66 377 17.32 377 18 C377.99 18.33 378.98 18.66 380 19 C380 19.66 380 20.32 380 21 C380.7425 21.28875 381.485 21.5775 382.25 21.875 C388.77142857 24.54285714 388.77142857 24.54285714 390 27 C402.83831654 35.94942842 417.48205885 37.44327047 432.5 34.8125 C438.14057787 33.62171134 442.86795398 31.97118454 447.8515625 29.0859375 C450.22480192 27.88637285 452.38362005 27.41311262 455 27 C455 26.34 455 25.68 455 25 C455.73863281 24.64808594 456.47726562 24.29617188 457.23828125 23.93359375 C465.61949135 19.85480917 474.07034462 15.55751392 481.125 9.375 C486.2043361 5.1790267 491.45040877 2.05898487 498 1 C498.25 6.625 498.25 6.625 496 10 C495.39271125 11.81898811 494.83775897 13.65565177 494.3125 15.5 C490.2185229 29.19259007 485.39559858 43.20880284 479 56 C326.87 56 174.74 56 18 56 C14.62851197 47.00936524 14.62851197 47.00936524 13.3515625 43.3359375 C13.07086914 42.5305957 12.79017578 41.72525391 12.50097656 40.89550781 C12.2119043 40.06374023 11.92283203 39.23197266 11.625 38.375 C6.59469118 23.84903125 6.59469118 23.84903125 1.25 9.4375 C0.21410076 6.58877709 -0.63574129 4.00513436 -1 1 C-0.67 0.67 -0.34 0.34 0 0 Z " fill="#9D7B54" transform="translate(40,286)"/>
<path d="M0 0 C51.1443072 -0.11435939 102.28860151 -0.20250514 153.43301134 -0.25532665 C159.46640881 -0.26158044 165.49980603 -0.26805202 171.53320312 -0.2746582 C172.73438102 -0.27596976 173.93555892 -0.27728131 175.17313614 -0.2786326 C194.64118413 -0.30040935 214.10915854 -0.33984335 233.57716283 -0.38576398 C253.54223665 -0.43246551 273.50727184 -0.46028204 293.47239804 -0.47044247 C305.79925644 -0.47731472 318.12590693 -0.49904634 330.45270136 -0.53958233 C338.89724104 -0.5659429 347.3416727 -0.5740162 355.78625056 -0.56750689 C360.66373065 -0.56429356 365.54084659 -0.56933619 370.41826248 -0.59602737 C374.87941907 -0.62026328 379.33996478 -0.62165095 383.8011488 -0.60449447 C385.41898732 -0.60237243 387.03686314 -0.60879698 388.65462765 -0.62441591 C390.84704998 -0.64436011 393.03724078 -0.63374871 395.2296257 -0.61523914 C396.4492874 -0.61713775 397.6689491 -0.61903635 398.92557025 -0.62099248 C402 0 402 0 404.34502339 2.3314212 C406.09780689 5.15770942 407.10814072 7.80417092 408 11 C408.66 11 409.32 11 410 11 C410.226875 11.556875 410.45375 12.11375 410.6875 12.6875 C411.97730549 15.21980238 411.97730549 15.21980238 414.625 17.5 C417 20 417 20 417 24 C414.5625 26.125 414.5625 26.125 412 28 C411.67 28.66 411.34 29.32 411 30 C407.54131357 31.15289548 404.85817244 31.13330783 401.20767307 31.14425182 C400.50979997 31.14769323 399.81192686 31.15113465 399.09290609 31.15468034 C396.7369429 31.16506867 394.38102266 31.16833956 392.02503967 31.17167664 C390.325882 31.17767157 388.6267258 31.18409653 386.92757124 31.19091636 C382.24462949 31.20842355 377.56169006 31.21968169 372.87872756 31.22992671 C367.8336555 31.2420198 362.78860298 31.25978758 357.74354553 31.27679443 C347.85454427 31.30914806 337.96553538 31.33595799 328.07651217 31.36059722 C320.04171569 31.38063652 312.00692493 31.40223271 303.97213554 31.42493629 C281.21107107 31.48906658 258.45000105 31.5489999 235.68891174 31.60361841 C233.84706913 31.60803896 233.84706913 31.60803896 231.96801758 31.61254883 C230.12393627 31.61697343 230.12393627 31.61697343 228.24260079 31.62148742 C208.30916472 31.66957163 188.37577186 31.72764853 168.44237656 31.79024651 C147.99357493 31.85434833 127.54476447 31.91099055 107.0959205 31.95981437 C95.6079088 31.98739812 84.11992471 32.01810696 72.63194466 32.05682945 C62.85247674 32.08973476 53.07302108 32.11574358 43.29351193 32.13268574 C38.30068087 32.14153594 33.30791361 32.15367434 28.31511688 32.17449379 C23.74878698 32.19345369 19.1825352 32.20322177 14.61616736 32.20551727 C12.960064 32.207992 11.30396167 32.21389689 9.64788426 32.22349032 C7.4045446 32.23598924 5.16153271 32.23621937 2.91816807 32.2332716 C1.66975496 32.23652673 0.42134185 32.23978186 -0.86490196 32.24313563 C-3.83793123 32.01256889 -5.50540184 31.56813313 -8 30 C-8 29.34 -8 28.68 -8 28 C-8.66 28 -9.32 28 -10 28 C-11.7143618 26.04072937 -13.38405168 24.04119788 -15 22 C-14 20 -13 18 -12 16 C-11.34 16 -10.68 16 -10 16 C-9.7525 15.278125 -9.505 14.55625 -9.25 13.8125 C-7.88863197 10.74942192 -6.11016723 8.58665661 -4 6 C-3.67 5.01 -3.34 4.02 -3 3 C-2.34 3 -1.68 3 -1 3 C-0.67 2.01 -0.34 1.02 0 0 Z " fill="#9E7953" transform="translate(88,396)"/>
<path d="M0 0 C1.79898454 -0.000437 3.59796902 -0.00131428 5.39695317 -0.00258917 C10.29995264 -0.00480875 15.20292997 -0.00084787 20.10592663 0.0041889 C25.408371 0.00852991 30.71081424 0.00704439 36.01325989 0.00628662 C45.18671397 0.00576369 54.36016092 0.00888632 63.5336132 0.01452446 C76.79668956 0.02267082 90.05976247 0.02525789 103.32284106 0.02651245 C124.84422204 0.02869805 146.36559923 0.03534478 167.88697815 0.04481506 C188.7860665 0.05400192 209.68515381 0.06107652 230.58424377 0.06532288 C232.51838612 0.06571696 232.51838612 0.06571696 234.49160206 0.06611901 C240.96064539 0.0674241 247.42968872 0.06868779 253.89873207 0.06993091 C307.51843326 0.08028819 361.13813032 0.09789311 414.75782776 0.12025452 C414.13504121 3.39068988 413.40698132 6.25597283 412.05079651 9.29994202 C411.54129456 10.44656311 411.54129456 10.44656311 411.02149963 11.61634827 C410.66636292 12.40138733 410.3112262 13.18642639 409.94532776 13.99525452 C409.6017926 14.7725592 409.25825745 15.54986389 408.90431213 16.35072327 C406.74999532 21.1605488 404.40165857 25.4935506 401.75782776 30.12025452 C262.16782776 30.12025452 122.57782776 30.12025452 -21.24217224 30.12025452 C-23.49073516 25.06098795 -25.71280042 20.04852025 -27.80467224 14.93275452 C-29.1272139 11.72844833 -30.45924459 8.57322578 -32.05467224 5.49525452 C-33.24217224 3.12025452 -33.24217224 3.12025452 -33.24217224 1.12025452 C-22.14135925 0.21819359 -11.13243062 -0.02034693 0 0 Z " fill="#A17D5A" transform="translate(98.24217224121094,353.87974548339844)"/>
<path d="M0 0 C3.51944154 0.65326061 6.04480677 2.10654543 9.0625 4 C11.76080698 5.68796347 13.97148084 6.99049361 17 8 C18.20590159 19.87143124 13.0334115 30.06412659 7 40 C6.34 40 5.68 40 5 40 C4.94199219 40.5465625 4.88398438 41.093125 4.82421875 41.65625 C3.64258853 45.01633594 1.31776723 47.07725145 -1.1875 49.5 C-1.65736328 49.97308594 -2.12722656 50.44617188 -2.61132812 50.93359375 C-5.85073245 54.12438492 -9.17286543 56.5959925 -13 59 C-11.87685891 62.22981622 -10.75115766 65.45873447 -9.625 68.6875 C-9.30789063 69.59951172 -8.99078125 70.51152344 -8.6640625 71.45117188 C-8.3546875 72.33740234 -8.0453125 73.22363281 -7.7265625 74.13671875 C-7.30238037 75.35427856 -7.30238037 75.35427856 -6.86962891 76.59643555 C-6.26589362 78.26509751 -5.62473344 79.9205032 -4.95483398 81.5637207 C-3.88177438 84.30165519 -3.17981235 87.07661281 -2.49560547 89.93359375 C-2.03645704 91.84799389 -1.53747621 93.75272174 -1.03515625 95.65625 C3.83924022 114.91892522 5.55782525 134.16621343 5 154 C1.26135158 154 0.76357294 153.14037109 -1.875 150.625 C-4.77884746 147.97296219 -7.14146274 146.0852136 -11 145 C-11 144.34 -11 143.68 -11 143 C-12.1446875 142.8453125 -12.1446875 142.8453125 -13.3125 142.6875 C-16.35525689 142.12020634 -19.05992228 141.35817426 -22 140.4375 C-35.19886736 136.86687774 -47.40802852 139.54146933 -60 144 C-60.99 144.99 -60.99 144.99 -62 146 C-62.99 146 -63.98 146 -65 146 C-65 146.66 -65 147.32 -65 148 C-70.41176471 152 -70.41176471 152 -73 152 C-73.33 152.99 -73.66 153.98 -74 155 C-74.99 155 -75.98 155 -77 155 C-77.67551807 135.78526382 -75.36959054 116.68308091 -71 98 C-70.82678223 97.25186035 -70.65356445 96.5037207 -70.47509766 95.73291016 C-68.67405877 88.03817948 -66.71415987 80.43034856 -64 73 C-63.48566406 71.57494141 -63.48566406 71.57494141 -62.9609375 70.12109375 C-62.26711563 68.20684421 -61.56956717 66.29393858 -60.8671875 64.3828125 C-60.21769514 62.59817134 -59.6005651 60.8016953 -59 59 C-60.41632134 57.89539041 -61.83307264 56.79133212 -63.25 55.6875 C-64.03890625 55.07261719 -64.8278125 54.45773438 -65.640625 53.82421875 C-67.15591663 52.65262737 -68.70692455 51.52511021 -70.296875 50.45703125 C-70.85890625 49.97621094 -71.4209375 49.49539062 -72 49 C-72 48.01 -72 47.02 -72 46 C-73.485 45.505 -73.485 45.505 -75 45 C-75 44.34 -75 43.68 -75 43 C-75.66 43 -76.32 43 -77 43 C-81.94825504 37.17852348 -84.38001991 29.72359193 -86.875 22.625 C-87.18526123 21.74489258 -87.49552246 20.86478516 -87.81518555 19.95800781 C-89.15455429 16.0166855 -90 13.22578399 -90 9 C-89.33613281 8.67386719 -88.67226562 8.34773438 -87.98828125 8.01171875 C-82.43656975 5.28307655 -82.43656975 5.28307655 -77.125 2.125 C-75 1 -75 1 -72.96875 1.15625 C-71 2 -71 2 -70.0859375 3.8984375 C-69.85132813 4.71570313 -69.61671875 5.53296875 -69.375 6.375 C-66.20720215 14.99982461 -59.83060358 21.90129754 -51.6875 26.125 C-42.89609388 30.10656244 -33.0251229 30.40155351 -24 27.0625 C-23.13375 26.70285156 -22.2675 26.34320313 -21.375 25.97265625 C-19 25 -19 25 -16.75 24.55859375 C-16.1725 24.37425781 -15.595 24.18992187 -15 24 C-14.505 22.515 -14.505 22.515 -14 21 C-12.33333333 19.33333333 -10.66666667 17.66666667 -9 16 C-4.69768691 10.97524335 -2.02428633 6.2977797 0 0 Z " fill="#A07C56" transform="translate(325,72)"/>
<path d="M0 0 C0.83337891 0.71349609 0.83337891 0.71349609 1.68359375 1.44140625 C1.68359375 2.10140625 1.68359375 2.76140625 1.68359375 3.44140625 C2.67359375 3.44140625 3.66359375 3.44140625 4.68359375 3.44140625 C9.98529729 8.15260528 14.0078585 14.42948941 17.68359375 20.44140625 C18.23853516 21.32505859 18.23853516 21.32505859 18.8046875 22.2265625 C29.46412822 41.09833498 26.97064679 63.91925905 21.44091797 83.88183594 C18.71321659 93.10079832 15.22663113 101.96106981 10.68359375 110.44140625 C10.05678939 111.73219828 9.43185726 113.02390078 8.80859375 114.31640625 C6.38132655 119.15167663 3.83948896 124.04118664 0.68359375 128.44140625 C0.02359375 128.44140625 -0.63640625 128.44140625 -1.31640625 128.44140625 C-1.44023682 129.03018555 -1.56406738 129.61896484 -1.69165039 130.22558594 C-2.68617956 133.75288047 -4.7760384 136.64567548 -6.75390625 139.69140625 C-7.16189453 140.34109375 -7.56988281 140.99078125 -7.99023438 141.66015625 C-9.04131227 143.29249909 -10.1731166 144.87226743 -11.31640625 146.44140625 C-11.97640625 146.44140625 -12.63640625 146.44140625 -13.31640625 146.44140625 C-13.60515625 147.03953125 -13.89390625 147.63765625 -14.19140625 148.25390625 C-15.31640625 150.44140625 -15.31640625 150.44140625 -17.31640625 153.44140625 C-17.97640625 153.44140625 -18.63640625 153.44140625 -19.31640625 153.44140625 C-19.31640625 154.43140625 -19.31640625 155.42140625 -19.31640625 156.44140625 C-19.97640625 156.44140625 -20.63640625 156.44140625 -21.31640625 156.44140625 C-21.58453125 157.01890625 -21.85265625 157.59640625 -22.12890625 158.19140625 C-23.34569814 160.49690668 -24.61974504 162.46196817 -26.31640625 164.44140625 C-26.97640625 164.44140625 -27.63640625 164.44140625 -28.31640625 164.44140625 C-28.64640625 165.43140625 -28.97640625 166.42140625 -29.31640625 167.44140625 C-29.97640625 167.44140625 -30.63640625 167.44140625 -31.31640625 167.44140625 C-31.64640625 168.43140625 -31.97640625 169.42140625 -32.31640625 170.44140625 C-32.97640625 170.44140625 -33.63640625 170.44140625 -34.31640625 170.44140625 C-34.64640625 171.43140625 -34.97640625 172.42140625 -35.31640625 173.44140625 C-36.875 175.046875 -36.875 175.046875 -38.75390625 176.62890625 C-39.37136719 177.15871094 -39.98882812 177.68851563 -40.625 178.234375 C-42.31640625 179.44140625 -42.31640625 179.44140625 -44.31640625 179.44140625 C-44.82406482 174.4917352 -43.58418274 171.31544129 -41.49926758 166.96435547 C-37.82427327 159.12588463 -35.17434486 151.09011154 -32.87890625 142.75390625 C-32.57960205 141.67101318 -32.28029785 140.58812012 -31.97192383 139.47241211 C-26.42146435 119.05841264 -21.05513296 97.77093902 -22.31640625 76.44140625 C-22.38472656 75.28511719 -22.45304687 74.12882812 -22.5234375 72.9375 C-23.4963952 62.68402274 -26.91632402 54.63591771 -31.31640625 45.44140625 C-31.99965278 43.78146757 -32.67417143 42.11763913 -33.31640625 40.44140625 C-33.97640625 40.44140625 -34.63640625 40.44140625 -35.31640625 40.44140625 C-35.31640625 39.45140625 -35.31640625 38.46140625 -35.31640625 37.44140625 C-35.93515625 37.13203125 -36.55390625 36.82265625 -37.19140625 36.50390625 C-38.56640625 35.81640625 -39.94140625 35.12890625 -41.31640625 34.44140625 C-41.31640625 33.78140625 -41.31640625 33.12140625 -41.31640625 32.44140625 C-42.96640625 31.78140625 -44.61640625 31.12140625 -46.31640625 30.44140625 C-46.31640625 29.78140625 -46.31640625 29.12140625 -46.31640625 28.44140625 C-47.03828125 28.17328125 -47.76015625 27.90515625 -48.50390625 27.62890625 C-51.31640625 26.44140625 -51.31640625 26.44140625 -53.69140625 25.00390625 C-60.05536204 21.21583733 -66.59409369 19.46514773 -73.75390625 17.81640625 C-74.65689453 17.59984375 -75.55988281 17.38328125 -76.49023438 17.16015625 C-81.75824364 15.9242149 -86.93492567 15.00787789 -92.31640625 14.44140625 C-91.98640625 13.12140625 -91.65640625 11.80140625 -91.31640625 10.44140625 C-90.65640625 10.44140625 -89.99640625 10.44140625 -89.31640625 10.44140625 C-89.31640625 9.78140625 -89.31640625 9.12140625 -89.31640625 8.44140625 C-88.65640625 8.44140625 -87.99640625 8.44140625 -87.31640625 8.44140625 C-86.98640625 7.45140625 -86.65640625 6.46140625 -86.31640625 5.44140625 C-85.65640625 5.44140625 -84.99640625 5.44140625 -84.31640625 5.44140625 C-84.31640625 4.78140625 -84.31640625 4.12140625 -84.31640625 3.44140625 C-81.75494055 1.14491976 -80.83673053 0.44140625 -77.31640625 0.44140625 C-77.31640625 -0.21859375 -77.31640625 -0.87859375 -77.31640625 -1.55859375 C-52.63012107 -14.33943643 -23.8105759 -16.02094399 0 0 Z " fill="#A07B57" transform="translate(430.31640625,110.55859375)"/>
<path d="M0 0 C6.86290735 5.26059706 6.86290735 5.26059706 8.08984375 8.94140625 C9.57484375 9.43640625 9.57484375 9.43640625 11.08984375 9.94140625 C12.27734375 12.00390625 12.27734375 12.00390625 13.08984375 13.94140625 C11.79691406 14.1115625 10.50398438 14.28171875 9.171875 14.45703125 C-13.16684229 17.52102021 -33.1135834 23.71636596 -47.59765625 42.19140625 C-53.59752875 51.02905629 -57.22519849 62.09021654 -57.2109375 72.71875 C-57.21736519 73.81226524 -57.21736519 73.81226524 -57.22392273 74.9278717 C-57.2296364 76.46663381 -57.23018828 78.00542291 -57.22583008 79.54418945 C-57.22270668 81.84180849 -57.24603669 84.13808999 -57.27148438 86.43554688 C-57.3150475 96.6049711 -56.12759315 106.02803605 -53.91015625 115.94140625 C-53.72638428 116.81595459 -53.5426123 117.69050293 -53.35327148 118.59155273 C-51.62501504 126.70727281 -49.52096728 134.6021218 -46.78125 142.4375 C-45.69145508 145.57004952 -44.81320027 148.75065072 -43.91015625 151.94140625 C-41.92393988 158.22638475 -39.63950323 164.37349064 -37.22265625 170.50390625 C-36.90232422 171.32181641 -36.58199219 172.13972656 -36.25195312 172.98242188 C-35.47337371 174.96954247 -34.6920578 176.95559052 -33.91015625 178.94140625 C-34.90015625 179.27140625 -35.89015625 179.60140625 -36.91015625 179.94140625 C-38.39515625 178.95140625 -38.39515625 178.95140625 -39.91015625 177.94140625 C-39.91015625 177.28140625 -39.91015625 176.62140625 -39.91015625 175.94140625 C-40.57015625 175.94140625 -41.23015625 175.94140625 -41.91015625 175.94140625 C-41.91015625 175.28140625 -41.91015625 174.62140625 -41.91015625 173.94140625 C-42.57015625 173.94140625 -43.23015625 173.94140625 -43.91015625 173.94140625 C-45.53515625 172.56640625 -45.53515625 172.56640625 -46.91015625 170.94140625 C-46.91015625 170.28140625 -46.91015625 169.62140625 -46.91015625 168.94140625 C-47.90015625 168.61140625 -48.89015625 168.28140625 -49.91015625 167.94140625 C-51.5234375 166.375 -51.5234375 166.375 -53.22265625 164.37890625 C-53.83109375 163.66476562 -54.43953125 162.950625 -55.06640625 162.21484375 C-57.36260645 159.38351214 -59.529844 156.4738434 -61.6484375 153.5078125 C-62.84410036 151.80108979 -62.84410036 151.80108979 -64.91015625 150.94140625 C-66.01196862 149.18539279 -66.94734183 147.37052124 -67.91015625 145.53515625 C-68.82775394 143.76596284 -68.82775394 143.76596284 -70.91015625 142.94140625 C-70.91015625 141.95140625 -70.91015625 140.96140625 -70.91015625 139.94140625 C-71.57015625 139.94140625 -72.23015625 139.94140625 -72.91015625 139.94140625 C-74.4609375 137.8515625 -74.4609375 137.8515625 -76.22265625 135.00390625 C-76.8465625 133.99585938 -77.47046875 132.9878125 -78.11328125 131.94921875 C-80.04219279 128.72038857 -81.88797773 125.46094116 -83.67578125 122.15234375 C-84.94542852 119.87822871 -86.32693781 117.70253799 -87.72265625 115.50390625 C-102.48675138 90.96050068 -109.87258324 62.33976984 -103.91015625 33.94140625 C-102.55396501 29.76394126 -100.86614169 25.87028767 -98.91015625 21.94140625 C-98.49378906 21.09449219 -98.07742187 20.24757812 -97.6484375 19.375 C-95.2723569 14.82521791 -92.79922573 11.36749127 -88.91015625 7.94140625 C-88.31589844 7.40257813 -87.72164062 6.86375 -87.109375 6.30859375 C-82.20390625 1.94140625 -82.20390625 1.94140625 -79.91015625 1.94140625 C-79.91015625 1.28140625 -79.91015625 0.62140625 -79.91015625 -0.05859375 C-78.92015625 -0.05859375 -77.93015625 -0.05859375 -76.91015625 -0.05859375 C-76.91015625 -0.71859375 -76.91015625 -1.37859375 -76.91015625 -2.05859375 C-53.62547246 -16.00151817 -22.34410068 -15.80582693 0 0 Z " fill="#9F7B57" transform="translate(227.91015625,111.05859375)"/>
<path d="M0 0 C14.69291988 1.98888932 29.37908656 8.44872314 42 16 C43.23922161 16.72197539 44.4788328 17.44328235 45.71875 18.1640625 C51.90565031 21.79002309 57.95636952 25.43552544 63.58203125 29.90625 C65.02813603 31.09414093 65.02813603 31.09414093 67 32 C67 32.66 67 33.32 67 34 C67.804375 34.268125 68.60875 34.53625 69.4375 34.8125 C70.283125 35.204375 71.12875 35.59625 72 36 C72.33 36.99 72.66 37.98 73 39 C73.70125 39.226875 74.4025 39.45375 75.125 39.6875 C78.79934264 41.36491729 80.56048506 43.71992958 83.05859375 46.83203125 C85.03094255 49.03455355 87.19727098 50.79267288 89.4855957 52.65405273 C91.97878668 54.86990988 93.87997075 57.46278064 95.875 60.125 C96.29845703 60.68759521 96.72191406 61.25019043 97.15820312 61.82983398 C98.44673449 63.54747333 99.72416999 65.27291339 101 67 C101.77601563 68.04027344 102.55203125 69.08054687 103.3515625 70.15234375 C111.1232761 80.67948309 111.1232761 80.67948309 110.76953125 84.46875 C108.85195267 90.77631813 105.07123191 95.91096012 101 101 C100.25176318 102.32272577 99.52499697 103.65768488 98.8125 105 C94.86965553 112.29793573 90.03990088 119.28992697 84.78515625 125.703125 C82.82989089 127.95618245 82.82989089 127.95618245 82 131 C81.34 131 80.68 131 80 131 C79.731875 131.7425 79.46375 132.485 79.1875 133.25 C78.04723249 135.89061949 76.90619694 137.85552844 75 140 C74.34 140 73.68 140 73 140 C73 140.99 73 141.98 73 143 C71.37660195 144.70884005 69.70680947 146.37446717 68 148 C67.34 148.99 66.68 149.98 66 151 C65.34 151 64.68 151 64 151 C63.71125 151.598125 63.4225 152.19625 63.125 152.8125 C62 155 62 155 60 158 C59.34 158 58.68 158 58 158 C57.61134766 158.86044922 57.61134766 158.86044922 57.21484375 159.73828125 C55.89809397 162.18972216 54.39035287 164.09234822 52.5625 166.1875 C51.96566406 166.88230469 51.36882812 167.57710937 50.75390625 168.29296875 C49 170 49 170 46 171 C45.31558691 172.3243115 44.65095851 173.65892758 44 175 C42.2734375 176.703125 42.2734375 176.703125 40.375 178.25 C39.74335938 178.77078125 39.11171875 179.2915625 38.4609375 179.828125 C37.97882813 180.21484375 37.49671875 180.6015625 37 181 C35.51330038 177.14559357 36.55341274 174.95781665 38.125 171.25 C43.26797795 158.4994037 46.83503924 145.36316765 50 132 C50.2165625 131.113125 50.433125 130.22625 50.65625 129.3125 C52.59894292 121.08462409 53.16629281 112.93749777 53.125 104.5 C53.12886719 103.70980469 53.13273437 102.91960937 53.13671875 102.10546875 C53.12269669 93.53799208 52.18936916 85.64062673 49.6875 77.4375 C49.46312256 76.69226074 49.23874512 75.94702148 49.00756836 75.17919922 C47.45158275 70.14808695 45.6442656 65.56302872 43 61 C42.57074219 60.17757812 42.14148438 59.35515625 41.69921875 58.5078125 C36.00404775 46.18025921 36.00404775 46.18025921 27 37 C27 36.01 27 35.02 27 34 C25.515 33.505 25.515 33.505 24 33 C19 27.53488372 19 27.53488372 19 25 C18.34 25 17.68 25 17 25 C14 21.53846154 14 21.53846154 14 19 C13.34 19 12.68 19 12 19 C12 18.34 12 17.68 12 17 C11.01 16.67 10.02 16.34 9 16 C7.39453125 14.44140625 7.39453125 14.44140625 5.8125 12.5625 C5.01779297 11.63630859 5.01779297 11.63630859 4.20703125 10.69140625 C3 9 3 9 3 7 C2.34 7 1.68 7 1 7 C0.34 5.02 -0.32 3.04 -1 1 C-0.67 0.67 -0.34 0.34 0 0 Z " fill="#9D7A56" transform="translate(450,111)"/>
<path d="M0 0 C0.495 1.485 0.495 1.485 1 3 C-0.3125 5.5 -0.3125 5.5 -2 8 C-2.66 8.99 -3.32 9.98 -4 11 C-4.66 11 -5.32 11 -6 11 C-6 11.66 -6 12.32 -6 13 C-7.3203125 14.2265625 -7.3203125 14.2265625 -9.125 15.625 C-12.66153244 18.52309149 -15.16672136 21.69871015 -17.73828125 25.4609375 C-18.15464844 25.96882813 -18.57101563 26.47671875 -19 27 C-19.66 27 -20.32 27 -21 27 C-21.24621094 27.55945313 -21.49242188 28.11890625 -21.74609375 28.6953125 C-23.22779666 31.41869167 -25.03823549 33.52585353 -27.0625 35.875 C-47.0419084 60.08760569 -55.75206 88.04603541 -52.765625 119.46582031 C-52.13781681 124.04840708 -51.10847218 128.51355442 -50 133 C-49.7215625 134.26199219 -49.443125 135.52398437 -49.15625 136.82421875 C-46.48886924 148.6045374 -42.49747189 160.01921995 -38.11767578 171.265625 C-36 176.71072214 -36 176.71072214 -36 180 C-39.33646536 178.5836449 -41.15544293 176.91828002 -43.4375 174.125 C-46.08190815 170.99109502 -48.78746764 168.55355137 -52 166 C-58 159.7 -58 159.7 -58 157 C-58.66 157 -59.32 157 -60 157 C-61.9453125 154.8828125 -61.9453125 154.8828125 -64.125 152.125 C-64.84945312 151.22007812 -65.57390625 150.31515625 -66.3203125 149.3828125 C-68 147 -68 147 -68 145 C-68.66 145 -69.32 145 -70 145 C-70 144.01 -70 143.02 -70 142 C-70.99 141.67 -71.98 141.34 -73 141 C-74.90234375 138.70703125 -74.90234375 138.70703125 -76.9375 135.8125 C-77.63746094 134.81863281 -78.33742188 133.82476562 -79.05859375 132.80078125 C-80.01958984 131.41439453 -80.01958984 131.41439453 -81 130 C-81.69802734 129.03126953 -81.69802734 129.03126953 -82.41015625 128.04296875 C-84.25591262 125.42980113 -85 124.2861618 -85 121 C-86.485 120.505 -86.485 120.505 -88 120 C-89.50219727 118.09814453 -89.50219727 118.09814453 -91.06640625 115.6328125 C-91.63423828 114.74722656 -92.20207031 113.86164063 -92.78710938 112.94921875 C-93.37298828 112.01722656 -93.95886719 111.08523437 -94.5625 110.125 C-95.44711914 108.73861328 -95.44711914 108.73861328 -96.34960938 107.32421875 C-97.44596967 105.60546507 -98.53885725 103.88448795 -99.62719727 102.16064453 C-100.72925797 100.42611897 -101.86007872 98.70988192 -103 97 C-103 96.01 -103 95.02 -103 94 C-103.99 93.67 -104.98 93.34 -106 93 C-108.61204882 88.97167796 -110.08690485 85.23839413 -109.75 80.4375 C-109.5025 79.633125 -109.255 78.82875 -109 78 C-108.34 78 -107.68 78 -107 78 C-106.71125 77.2575 -106.4225 76.515 -106.125 75.75 C-105.17697356 73.43260203 -104.15154089 71.22082885 -103 69 C-102.34 69 -101.68 69 -101 69 C-100.731875 68.443125 -100.46375 67.88625 -100.1875 67.3125 C-98.89100504 64.78774666 -97.57523677 62.36285516 -96 60 C-95.34 60 -94.68 60 -94 60 C-93.71125 59.401875 -93.4225 58.80375 -93.125 58.1875 C-92 56 -92 56 -90 53 C-89.34 53 -88.68 53 -88 53 C-88 52.34 -88 51.68 -88 51 C-86.625 49.375 -86.625 49.375 -85 48 C-84.34 48 -83.68 48 -83 48 C-82.67 47.01 -82.34 46.02 -82 45 C-81.34 45 -80.68 45 -80 45 C-79.79375 44.443125 -79.5875 43.88625 -79.375 43.3125 C-77.42316968 40.02987629 -75.05769006 38.29326754 -72 36 C-71.34 36 -70.68 36 -70 36 C-70 35.34 -70 34.68 -70 34 C-68.35 33.34 -66.7 32.68 -65 32 C-65 31.34 -65 30.68 -65 30 C-64.01 30 -63.02 30 -62 30 C-61.505 28.515 -61.505 28.515 -61 27 C-59.27909203 25.96096122 -57.5523026 24.9281159 -55.77734375 23.984375 C-53.85170252 22.97772122 -53.85170252 22.97772122 -51.75 21.25 C-50 20 -50 20 -47 20 C-47 19.34 -47 18.68 -47 18 C-31.66606322 10.15380378 -17.02122641 3.35499761 0 0 Z " fill="#9D7B56" transform="translate(127,112)"/>
<path d="M0 0 C1.39496704 -0.00290039 1.39496704 -0.00290039 2.81811523 -0.00585938 C3.81915283 -0.00134766 4.82019043 0.00316406 5.8515625 0.0078125 C6.8712915 0.00974609 7.89102051 0.01167969 8.94165039 0.01367188 C18.80535507 0.06861012 28.63305108 0.52904838 38.4765625 1.1328125 C37.85730785 4.5480152 37.00788889 7.72634722 35.84765625 10.99609375 C35.56591553 11.79571533 35.2841748 12.59533691 34.99389648 13.41918945 C34.63755127 14.41781006 34.28120605 15.41643066 33.9140625 16.4453125 C32.2125 21.240625 32.2125 21.240625 30.4765625 26.1328125 C39.3865625 25.8028125 48.2965625 25.4728125 57.4765625 25.1328125 C57.4140625 34.6953125 57.4140625 34.6953125 57.38647461 37.66625977 C57.37097873 42.59644954 57.54597963 47.28467098 58.4765625 52.1328125 C58.8065625 52.4628125 59.1365625 52.7928125 59.4765625 53.1328125 C59.4765625 54.7828125 59.4765625 56.4328125 59.4765625 58.1328125 C49.9065625 57.8028125 40.3365625 57.4728125 30.4765625 57.1328125 C30.59482701 64.14818393 30.59482701 64.14818393 30.74682617 71.1628418 C30.82350043 80.17660189 30.82350043 80.17660189 27.4765625 84.1328125 C23.81481297 87.44019918 21.00202113 88.01768355 16.1640625 88.3828125 C10.76096849 88.01650104 7.00365372 86.61971711 3.1015625 82.8203125 C-0.14382754 77.45293667 0.3475585 71.34204599 0.4140625 65.2578125 C0.4346875 62.5765625 0.4553125 59.8953125 0.4765625 57.1328125 C-8.1034375 57.4628125 -16.6834375 57.7928125 -25.5234375 58.1328125 C-24.44461977 49.50227063 -24.44461977 49.50227063 -23.4609375 46.0703125 C-21.90672227 39.53109584 -22.40323981 32.80378404 -22.5234375 26.1328125 C-14.6034375 25.8028125 -6.6834375 25.4728125 1.4765625 25.1328125 C-0.5839102 18.14192299 -2.62052991 11.40845554 -5.7890625 4.83984375 C-6.5234375 3.1328125 -6.5234375 3.1328125 -6.5234375 1.1328125 C-4.1370741 -0.0603692 -2.66268948 0.00363684 0 0 Z " fill="#9E7C57" transform="translate(272.5234375,-0.1328125)"/>
<path d="M0 0 C5.30478387 4.3350922 10.40506714 9.52083803 11.6640625 16.4453125 C12.76178714 28.68171366 10.87079748 36.97620921 3.1796875 46.78125 C-0.31683933 50.41451252 -4.03261206 53.9870244 -8.8203125 55.78125 C-11.0703125 55.40625 -11.0703125 55.40625 -12.8203125 54.78125 C-12.4903125 53.646875 -12.1603125 52.5125 -11.8203125 51.34375 C-10.12141965 44.48750384 -10.14724253 38.38530521 -12.8203125 31.78125 C-13.1503125 30.79125 -13.4803125 29.80125 -13.8203125 28.78125 C-16.65969917 27.15874333 -18.54425483 26.7754988 -21.8203125 26.84375 C-25.71776899 28.06170515 -27.30972322 29.57327481 -29.8203125 32.78125 C-33.17796777 40.10704331 -31.98468601 49.17819432 -29.8203125 56.78125 C-36.5703125 53.90625 -36.5703125 53.90625 -38.8203125 52.78125 C-38.8203125 52.12125 -38.8203125 51.46125 -38.8203125 50.78125 C-39.5215625 50.61625 -40.2228125 50.45125 -40.9453125 50.28125 C-47.60553973 46.80634884 -50.85264794 39.66687525 -53.125 32.7734375 C-54.9780416 24.7991124 -54.78076605 16.64422509 -51.3515625 9.13671875 C-46.75948574 2.07288638 -39.52614642 -3.64441305 -31.37109375 -5.89453125 C-19.85213577 -7.35865608 -9.62120274 -6.79143723 0 0 Z " fill="#9E7C55" transform="translate(309.8203125,231.21875)"/>
<path d="M0 0 C-0.66 1.98 -1.32 3.96 -2 6 C-141.26 6 -280.52 6 -424 6 C-424 5.67 -424 5.34 -424 5 C-423.12453063 4.99940291 -422.24906127 4.99880582 -421.34706253 4.99819064 C-369.48194276 4.96231182 -317.61688106 4.90569613 -265.75181514 4.82207905 C-259.52700785 4.81206136 -253.30220031 4.80221727 -247.07739258 4.79248047 C-245.83812362 4.7905391 -244.59885466 4.78859772 -243.3220321 4.78659752 C-223.24496583 4.75556003 -203.167911 4.73859199 -183.09082525 4.72680578 C-162.49628277 4.71440329 -141.9018004 4.68692227 -121.30729586 4.64538693 C-108.59510821 4.62022574 -95.88302022 4.60688464 -83.17080731 4.60857043 C-74.45850655 4.60860014 -65.74630744 4.59400917 -57.03404628 4.56783572 C-52.00437873 4.55315997 -46.97491968 4.54501234 -41.9452343 4.55419731 C-37.34147199 4.5624624 -32.73812924 4.55238958 -28.13442928 4.52766338 C-26.46810699 4.52196278 -24.80174515 4.52302137 -23.13543462 4.53148755 C-20.87063429 4.5420095 -18.60724922 4.52795133 -16.3425436 4.50780869 C-15.08453015 4.5062898 -13.82651669 4.50477092 -12.53038162 4.50320601 C-8.01116111 3.85905499 -4.23343871 0 0 0 Z " fill="#9D8463" transform="translate(521,336)"/>
<path d="M0 0 C51.15 0 102.3 0 155 0 C150.71945084 3.21041187 150.04218044 3.36763328 145.01663208 3.28915405 C143.79133789 3.27763809 142.5660437 3.26612213 141.30361938 3.2542572 C139.94866443 3.2262233 138.59371462 3.19794041 137.23876953 3.16943359 C135.8095268 3.15053583 134.38026483 3.13304887 132.95098877 3.11686707 C129.8744268 3.07940516 126.79818977 3.0327363 123.72186661 2.97916794 C118.85575308 2.8952786 113.98953834 2.83665584 109.12301636 2.78237915 C96.15889265 2.63391095 83.19525834 2.45324229 70.23180568 2.25491297 C61.71491277 2.12470705 53.19810009 2.0089463 44.68066108 1.92060149 C39.84467079 1.86927048 35.00975915 1.79486871 30.17437387 1.70318198 C27.16303606 1.65132378 24.15175358 1.62060231 21.14008331 1.59574318 C19.74599626 1.579984 18.35197545 1.55555924 16.95820999 1.52172279 C8.5961831 1.03510503 8.5961831 1.03510503 1.24874878 4.33926392 C-1.06582608 6.97585614 -1.06582608 6.97585614 -3 10 C-3.99 9.67 -4.98 9.34 -6 9 C-5.01 7.02 -4.02 5.04 -3 3 C-2.34 3 -1.68 3 -1 3 C-0.67 2.01 -0.34 1.02 0 0 Z " fill="#BCA78F" transform="translate(88,396)"/>
<path d="M0 0 C0.33 0 0.66 0 1 0 C1.268125 0.969375 1.53625 1.93875 1.8125 2.9375 C4.01999028 10.63679536 6.75126707 18.11464403 9.6875 25.5625 C10.00783203 26.38041016 10.32816406 27.19832031 10.65820312 28.04101562 C11.43678254 30.02813622 12.21809845 32.01418427 13 34 C11.515 34.495 11.515 34.495 10 35 C9.01 34.34 8.02 33.68 7 33 C7 32.34 7 31.68 7 31 C6.34 31 5.68 31 5 31 C5 30.34 5 29.68 5 29 C4.34 29 3.68 29 3 29 C1.375 27.625 1.375 27.625 0 26 C0 25.34 0 24.68 0 24 C-0.99 23.67 -1.98 23.34 -3 23 C-4.7890625 21.2578125 -4.7890625 21.2578125 -6.625 19.125 C-7.23601562 18.42632812 -7.84703125 17.72765625 -8.4765625 17.0078125 C-10 15 -10 15 -11 12 C-8.13275314 12.57344937 -7.1385485 12.8614515 -5 15 C-1.65405342 9.81917949 -0.43173504 6.15222436 0 0 Z " fill="#A28264" transform="translate(181,256)"/>
<path d="M0 0 C0.33 0 0.66 0 1 0 C2.125 7.75 2.125 7.75 1 10 C1.99 10 2.98 10 4 10 C4.37125 8.8553125 4.37125 8.8553125 4.75 7.6875 C6.1255271 4.73011673 7.15451051 3.55208517 10 2 C10.99 2.33 11.98 2.66 13 3 C12.67 3.99 12.34 4.98 12 6 C11.34 6 10.68 6 10 6 C9.67 6.99 9.34 7.98 9 9 C8.34 9 7.68 9 7 9 C6.67 9.99 6.34 10.98 6 12 C5.34 12 4.68 12 4 12 C3.67 12.99 3.34 13.98 3 15 C1.44140625 16.60546875 1.44140625 16.60546875 -0.4375 18.1875 C-1.05496094 18.71730469 -1.67242187 19.24710937 -2.30859375 19.79296875 C-4 21 -4 21 -6 21 C-6.52054967 15.92464069 -5.15425449 12.65705463 -3.0234375 8.19140625 C-1.77983656 5.52858133 -0.86357063 2.80660456 0 0 Z " fill="#A98F6F" transform="translate(392,269)"/>
<path d="M0 0 C0.33 0 0.66 0 1 0 C1.103125 0.78375 1.20625 1.5675 1.3125 2.375 C1.77595022 5.33045181 1.77595022 5.33045181 5 7 C4.67 7.66 4.34 8.32 4 9 C5.32 9.33 6.64 9.66 8 10 C6.58226538 13.54433654 5.32387762 14.33806119 2 16 C1.55527344 16.92039062 1.55527344 16.92039062 1.1015625 17.859375 C-0.15349078 20.29827286 -1.50933995 21.52612885 -3.625 23.25 C-4.25664062 23.77078125 -4.88828125 24.2915625 -5.5390625 24.828125 C-6.02117187 25.21484375 -6.50328125 25.6015625 -7 26 C-8.56952955 22.04746523 -7.33225334 19.61809209 -5.75 15.8125 C-3.63179205 10.58483359 -1.72860392 5.36777007 0 0 Z M0 8 C-1.21081851 11.10540926 -1.21081851 11.10540926 -1 15 C0.32 15 1.64 15 3 15 C3 14.01 3 13.02 3 12 C3.66 12 4.32 12 5 12 C4.67 11.01 4.34 10.02 4 9 C1.98491642 8.26676204 1.98491642 8.26676204 0 8 Z " fill="#A48970" transform="translate(494,266)"/>
<path d="M0 0 C0.33 0 0.66 0 1 0 C2.25818438 7.12971149 1.71148265 13.81949816 1 21 C1.66 21 2.32 21 3 21 C3.103125 21.639375 3.20625 22.27875 3.3125 22.9375 C3.6528125 23.9584375 3.6528125 23.9584375 4 25 C4.99 25.33 5.98 25.66 7 26 C7 26.66 7 27.32 7 28 C12.91206494 28.99204718 17.23496958 29.07541095 23 27 C23.99 26.67 24.98 26.34 26 26 C26 25.34 26 24.68 26 24 C26.66 24 27.32 24 28 24 C26.60440273 27.3726934 25.1078412 29.08045102 22 31 C17.10910052 32.85516877 12.20399352 32.38772673 7.3125 30.8125 C3.76341059 28.87054542 2.08380452 27.4462921 0 24 C-1.12086395 19.0593497 -1.15075938 14.22345895 -1.125 9.1875 C-1.12886719 8.41212891 -1.13273437 7.63675781 -1.13671875 6.83789062 C-1.12672546 1.12672546 -1.12672546 1.12672546 0 0 Z " fill="#AA947C" transform="translate(274,56)"/>
<path d="M0 0 C9.24 0 18.48 0 28 0 C27.9375 9.5625 27.9375 9.5625 27.90991211 12.53344727 C27.89441623 17.46363704 28.06941713 22.15185848 29 27 C29.33 27.33 29.66 27.66 30 28 C30.04063832 29.66617115 30.042721 31.33388095 30 33 C28.35 33 26.7 33 25 33 C25.99 32.505 25.99 32.505 27 32 C26.855625 31.25878906 26.71125 30.51757812 26.5625 29.75390625 C24.91849896 20.42648368 24.79641702 11.44398824 25 2 C23.55947266 2.26103516 23.55947266 2.26103516 22.08984375 2.52734375 C17.53871463 3.17750505 13.13251213 2.88287958 8.5625 2.5625 C7.32209961 2.48418945 7.32209961 2.48418945 6.05664062 2.40429688 C4.03734522 2.27590237 2.01860371 2.13884576 0 2 C0 1.34 0 0.68 0 0 Z " fill="#AC987F" transform="translate(302,25)"/>
<path d="M0 0 C-0.33 0.66 -0.66 1.32 -1 2 C-0.67 2.99 -0.34 3.98 0 5 C-0.33 5.66 -0.66 6.32 -1 7 C0.65 7.33 2.3 7.66 4 8 C3.67 8.99 3.34 9.98 3 11 C-4.425 10.01 -4.425 10.01 -12 9 C-11.67 7.68 -11.34 6.36 -11 5 C-10.34 5 -9.68 5 -9 5 C-9 4.34 -9 3.68 -9 3 C-8.34 3 -7.68 3 -7 3 C-6.67 2.01 -6.34 1.02 -6 0 C-3.42525708 -0.99667468 -2.51072708 -1.25536354 0 0 Z " fill="#A17F60" transform="translate(350,116)"/>
<path d="M0 0 C0.33 0.99 0.66 1.98 1 3 C-0.58133449 6.16266898 -2.38114512 8.63055987 -5 11 C-5 9.02 -5 7.04 -5 5 C-9.96911366 6.12697043 -9.96911366 6.12697043 -14 9 C-14.33 8.34 -14.66 7.68 -15 7 C-16.98 7 -18.96 7 -21 7 C-17.83767566 4.28510284 -15.10429574 3.30262525 -11.0625 2.375 C-10.04285156 2.13523437 -9.02320312 1.89546875 -7.97265625 1.6484375 C-5.32000819 1.06980468 -2.66466685 0.52017438 0 0 Z " fill="#A3886D" transform="translate(127,112)"/>
<path d="M0 0 C1.80182772 3.42684058 3.22173259 6.95585658 4.625 10.5625 C5.07101563 11.69816406 5.51703125 12.83382813 5.9765625 14.00390625 C7 17 7 17 7 20 C3.33213607 18.49650623 1.31089607 16.36271208 -1.25 13.375 C-1.95640625 12.55773437 -2.6628125 11.74046875 -3.390625 10.8984375 C-3.92171875 10.27195312 -4.4528125 9.64546875 -5 9 C-4.34 8.67 -3.68 8.34 -3 8 C-2.01 8.33 -1.02 8.66 0 9 C-0.185625 8.2575 -0.37125 7.515 -0.5625 6.75 C-0.99203108 4.05009037 -0.85122974 2.55368923 0 0 Z " fill="#A1896E" transform="translate(84,272)"/>
<path d="M0 0 C1.32 0.33 2.64 0.66 4 1 C4.33 2.32 4.66 3.64 5 5 C5.66 5 6.32 5 7 5 C7.26554687 5.77085937 7.53109375 6.54171875 7.8046875 7.3359375 C8.15789062 8.33882812 8.51109375 9.34171875 8.875 10.375 C9.39707031 11.87160156 9.39707031 11.87160156 9.9296875 13.3984375 C10.84782502 16.10442118 10.84782502 16.10442118 13 18 C13.6328125 19.8046875 13.6328125 19.8046875 14.125 21.875 C14.29257812 22.55304688 14.46015625 23.23109375 14.6328125 23.9296875 C15 26 15 26 15 30 C14.34 30 13.68 30 13 30 C12.82984375 29.3709375 12.6596875 28.741875 12.484375 28.09375 C10.85270363 22.33082557 8.80260868 17.27223415 6 12 C4.91239317 9.83547535 3.8292683 7.66869442 2.75 5.5 C2.22921875 4.4584375 1.7084375 3.416875 1.171875 2.34375 C0.78515625 1.5703125 0.3984375 0.796875 0 0 Z " fill="#A99179" transform="translate(487,160)"/>
<path d="M0 0 C0 0.66 0 1.32 0 2 C-3.62855488 4.54814247 -7.48009051 6.04269985 -11.625 7.5625 C-15.10070007 8.8390443 -17.91262362 9.94174908 -21 12 C-22.32 12 -23.64 12 -25 12 C-25 12.66 -25 13.32 -25 14 C-26.32 13.67 -27.64 13.34 -29 13 C-28.01 13 -27.02 13 -26 13 C-26 12.34 -26 11.68 -26 11 C-23.48043257 9.72660518 -20.95941351 8.45623358 -18.4375 7.1875 C-17.73302734 6.83107422 -17.02855469 6.47464844 -16.30273438 6.10742188 C-4.14392202 0 -4.14392202 0 0 0 Z " fill="#A68972" transform="translate(106,119)"/>
<path d="M0 0 C4.51889915 1.61948987 8.46829676 3.91123168 12.5625 6.375 C13.22185547 6.76171875 13.88121094 7.1484375 14.56054688 7.546875 C18.16476008 9.7057806 21.16585726 11.8413371 24 15 C21 15 21 15 18 14 C18 13.34 18 12.68 18 12 C17.236875 11.896875 16.47375 11.79375 15.6875 11.6875 C13 11 13 11 11.4375 9.375 C10.963125 8.92125 10.48875 8.4675 10 8 C7.83700789 8.22757731 7.83700789 8.22757731 6 9 C3 4.25 3 4.25 3 2 C2.01 2 1.02 2 0 2 C0 1.34 0 0.68 0 0 Z " fill="#AC987D" transform="translate(487,125)"/>
<path d="M0 0 C1.32 0.33 2.64 0.66 4 1 C4 1.99 4 2.98 4 4 C3.195625 4.2475 2.39125 4.495 1.5625 4.75 C-1.11214032 5.70425019 -1.11214032 5.70425019 -1.75 7.8125 C-1.92818762 9.37164168 -2.07013282 10.9351043 -2.1875 12.5 C-3.36454281 16.12167017 -5.87474198 17.00515446 -9 19 C-9 19.99 -9 20.98 -9 22 C-10.65 22 -12.3 22 -14 22 C-8.35875366 14.36202386 -8.35875366 14.36202386 -5.3125 11 C-2.54872668 7.41456434 -1.4032373 4.28356649 0 0 Z " fill="#B0987A" transform="translate(325,72)"/>
<path d="M0 0 C2.64 0.99 5.28 1.98 8 3 C7.34 3.66 6.68 4.32 6 5 C4.68 4.34 3.36 3.68 2 3 C2.27714844 3.53367187 2.55429687 4.06734375 2.83984375 4.6171875 C5.66786404 10.43425414 6.73088945 15.5548024 7 22 C4.04686323 20.52343161 3.77820124 18.16042674 2.7265625 15.19140625 C1.18653574 10.54648683 -0.28665769 5.85072772 -1 1 C-0.67 0.67 -0.34 0.34 0 0 Z " fill="#AD9B86" transform="translate(40,286)"/>
<path d="M0 0 C2.57619276 1.91315119 2.98395232 2.9016314 3.51171875 6.13671875 C3.59873047 7.89435547 3.59873047 7.89435547 3.6875 9.6875 C3.75324219 10.86699219 3.81898438 12.04648437 3.88671875 13.26171875 C3.92410156 14.16535156 3.96148437 15.06898438 4 16 C4.66 16 5.32 16 6 16 C6 16.99 6 17.98 6 19 C2.52692308 21.10865385 2.52692308 21.10865385 -0.140625 20.55859375 C-0.75421875 20.37425781 -1.3678125 20.18992187 -2 20 C-1.67 18.9275 -1.34 17.855 -1 16.75 C0.41530308 11.20839078 0.17036936 5.67897871 0 0 Z " fill="#9F876B" transform="translate(299,266)"/>
<path d="M0 0 C0.33 0 0.66 0 1 0 C2.25818438 7.12971149 1.71148265 13.81949816 1 21 C1.66 21 2.32 21 3 21 C3.68707555 23.49064888 4 25.37886292 4 28 C0.22325393 24.83240652 -0.4613112 22.83709222 -1 18 C-1.12902132 15.06067869 -1.14004732 12.12925132 -1.125 9.1875 C-1.12886719 8.41212891 -1.13273437 7.63675781 -1.13671875 6.83789062 C-1.12672546 1.12672546 -1.12672546 1.12672546 0 0 Z " fill="#AD957E" transform="translate(274,56)"/>
<path d="M0 0 C4.50229474 -0.09889302 9.00395727 -0.17147709 13.50708008 -0.21972656 C15.03876762 -0.2398398 16.57037839 -0.2671345 18.10180664 -0.30175781 C20.30374073 -0.35029315 22.50465982 -0.37296996 24.70703125 -0.390625 C25.39150833 -0.41127014 26.07598541 -0.43191528 26.78120422 -0.45318604 C29.99702125 -0.45470309 31.57112651 -0.42235965 33.9128418 1.88378906 C34.96735855 3.9364617 35.59518543 5.7330384 36 8 C35.01 8 34.02 8 33 8 C33 6.35 33 4.7 33 3 C29.41922407 1.91104109 25.99531977 1.79810192 22.265625 1.68359375 C20.97011719 1.64169922 19.67460937 1.59980469 18.33984375 1.55664062 C16.97656524 1.51683329 15.61328394 1.47712094 14.25 1.4375 C12.87108125 1.39427726 11.49217474 1.35066179 10.11328125 1.30664062 C6.7422881 1.20056042 3.37122174 1.0985015 0 1 C0 0.67 0 0.34 0 0 Z " fill="#957C5F" transform="translate(459,397)"/>
<path d="M0 0 C-0.60698743 4.12751449 -2.03810791 7.3321148 -4 11 C-4.99 10.34 -5.98 9.68 -7 9 C-6.34 8.34 -5.68 7.68 -5 7 C-5.99 6.67 -6.98 6.34 -8 6 C-7.625 3.5625 -7.625 3.5625 -7 1 C-4.53721199 -0.231394 -2.7204945 -0.07159196 0 0 Z " fill="#A5886C" transform="translate(513,354)"/>
<path d="M0 0 C2.31 0.66 4.62 1.32 7 2 C5.68 2.33 4.36 2.66 3 3 C3.66 4.32 4.32 5.64 5 7 C8.89459074 7.21081851 8.89459074 7.21081851 12 6 C12 7.32 12 8.64 12 10 C10 11 8 12 6 13 C3 9.25 3 9.25 3 7 C2.34 7 1.68 7 1 7 C0.34 5.02 -0.32 3.04 -1 1 C-0.67 0.67 -0.34 0.34 0 0 Z " fill="#A28165" transform="translate(450,111)"/>
<path d="M0 0 C6.40353322 -0.2361959 11.84629161 0.176679 18 2 C18.33 3.32 18.66 4.64 19 6 C15.25 7.125 15.25 7.125 13 6 C13.33 5.34 13.66 4.68 14 4 C9.38 3.34 4.76 2.68 0 2 C0 1.34 0 0.68 0 0 Z " fill="#A38A6F" transform="translate(285,225)"/>
<path d="M0 0 C5.6143991 1.56448671 10.86810338 3.16395187 16 6 C15.67 6.66 15.34 7.32 15 8 C13.02 8 11.04 8 9 8 C8.67 7.34 8.34 6.68 8 6 C5.98330173 4.86649466 5.98330173 4.86649466 4 4 C3.34 4.66 2.68 5.32 2 6 C2 5.34 2 4.68 2 4 C1.34 4 0.68 4 0 4 C0 2.68 0 1.36 0 0 Z " fill="#B69E88" transform="translate(471,118)"/>
<path d="M0 0 C1.79068573 2.6860286 2.66055791 4.6626589 3.625 7.6875 C3.88539063 8.49574219 4.14578125 9.30398438 4.4140625 10.13671875 C4.60742188 10.75160156 4.80078125 11.36648438 5 12 C3.35 11.67 1.7 11.34 0 11 C-0.33 10.01 -0.66 9.02 -1 8 C-1.66 8 -2.32 8 -3 8 C-3 7.34 -3 6.68 -3 6 C-3.66 5.67 -4.32 5.34 -5 5 C-4.01 5 -3.02 5 -2 5 C-2 4.34 -2 3.68 -2 3 C-1.34 3 -0.68 3 0 3 C0 2.01 0 1.02 0 0 Z " fill="#AD977E" transform="translate(189,279)"/>
<path d="M0 0 C5.75 0.75 5.75 0.75 8 3 C7.01 4.32 6.02 5.64 5 7 C5.515625 7.598125 6.03125 8.19625 6.5625 8.8125 C7.036875 9.534375 7.51125 10.25625 8 11 C7.67 11.99 7.34 12.98 7 14 C3.94998169 10.33997803 0 4.92148529 0 0 Z " fill="#A58364" transform="translate(65,355)"/>
<path d="M0 0 C3.3125 0.5625 3.3125 0.5625 7 2 C9.1875 5.1875 9.1875 5.1875 10 9 C9.01800232 11.75386305 7.7261549 13.58338314 6 16 C5.34 15.67 4.68 15.34 4 15 C5 12 6 9 7 6 C6.4946875 5.65066406 5.989375 5.30132812 5.46875 4.94140625 C4.49421875 4.25884766 4.49421875 4.25884766 3.5 3.5625 C2.8503125 3.11003906 2.200625 2.65757813 1.53125 2.19140625 C1.0259375 1.79824219 0.520625 1.40507813 0 1 C0 0.67 0 0.34 0 0 Z " fill="#AA9277" transform="translate(259,125)"/>
<path d="M0 0 C0.33 0 0.66 0 1 0 C1 1.98 1 3.96 1 6 C1.99 6 2.98 6 4 6 C2.71480435 8.86697492 1.42870746 10.97607712 -1 13 C-1.66 13 -2.32 13 -3 13 C-3.38281159 7.76824163 -2.21854707 4.62197306 0 0 Z " fill="#AD947D" transform="translate(389,277)"/>
<path d="M0 0 C0.66 0 1.32 0 2 0 C2 6.6 2 13.2 2 20 C1.01 20 0.02 20 -1 20 C-0.67 13.4 -0.34 6.8 0 0 Z " fill="#BCA58B" transform="translate(454,155)"/>
<path d="M0 0 C1.875 0.3125 1.875 0.3125 4 1 C4.66 1.99 5.32 2.98 6 4 C5.13375 4.268125 4.2675 4.53625 3.375 4.8125 C-0.04651655 5.92778724 -0.04651655 5.92778724 -3.25 7.6875 C-4.1575 8.120625 -5.065 8.55375 -6 9 C-6.66 8.67 -7.32 8.34 -8 8 C-7.360625 7.731875 -6.72125 7.46375 -6.0625 7.1875 C-3.66868314 6.11332248 -3.66868314 6.11332248 -3 3 C-2.34 3 -1.68 3 -1 3 C-0.67 2.01 -0.34 1.02 0 0 Z " fill="#AA8F76" transform="translate(405,293)"/>
<path d="M0 0 C-0.66 1.98 -1.32 3.96 -2 6 C-6.95 6 -11.9 6 -17 6 C-17 5.67 -17 5.34 -17 5 C-15.824375 4.9175 -14.64875 4.835 -13.4375 4.75 C-8.56692111 4.17037516 -4.48030529 0 0 0 Z " fill="#A48C6E" transform="translate(521,336)"/>
<path d="M0 0 C5.45956366 0.35800417 10.46647345 0.90328837 14.8125 4.5 C16 6 16 6 16 8 C14.68 7.67 13.36 7.34 12 7 C12 6.34 12 5.68 12 5 C11.175 4.87625 10.35 4.7525 9.5 4.625 C5.60227933 3.92897845 1.83260331 2.99119051 -2 2 C-1.34 1.34 -0.68 0.68 0 0 Z " fill="#B39F8B" transform="translate(302,210)"/>
<path d="M0 0 C0.66 0.33 1.32 0.66 2 1 C0.24288287 5.56850453 -1.15175949 8.7931329 -5 12 C-5.33 12 -5.66 12 -6 12 C-6 10.35 -6 8.7 -6 7 C-5.34 7 -4.68 7 -4 7 C-3.71125 6.401875 -3.4225 5.80375 -3.125 5.1875 C-2 3 -2 3 0 0 Z " fill="#A38B6E" transform="translate(37,165)"/>
<path d="M0 0 C0.33 0.66 0.66 1.32 1 2 C-6.59 2 -14.18 2 -22 2 C-22.66 3.98 -23.32 5.96 -24 8 C-24.33 8 -24.66 8 -25 8 C-25 5.69 -25 3.38 -25 1 C-12.625 0.505 -12.625 0.505 0 0 Z " fill="#B7A490" transform="translate(275,25)"/>
<path d="M0 0 C0.33 0.99 0.66 1.98 1 3 C-6.0547046 9.03938731 -6.0547046 9.03938731 -10 8.875 C-10.99 8.441875 -10.99 8.441875 -12 8 C-9.69716746 5.45868642 -7.32686207 3.92889705 -4.3125 2.3125 C-3.50425781 1.87550781 -2.69601562 1.43851562 -1.86328125 0.98828125 C-1.24839844 0.66214844 -0.63351562 0.33601563 0 0 Z " fill="#AE957A" transform="translate(268,309)"/>
<path d="M0 0 C1.32 0.33 2.64 0.66 4 1 C2.58226538 4.54433654 1.32387762 5.33806119 -2 7 C-3.26804566 9.0335948 -3.26804566 9.0335948 -4 11 C-7 7.125 -7 7.125 -7 6 C-5.02 6 -3.04 6 -1 6 C-1 5.01 -1 4.02 -1 3 C-0.34 3 0.32 3 1 3 C0.67 2.01 0.34 1.02 0 0 Z " fill="#A89276" transform="translate(498,275)"/>
<path d="M0 0 C1 2 1 2 0.22265625 4.8203125 C-0.16019531 5.91085938 -0.54304687 7.00140625 -0.9375 8.125 C-1.31777344 9.22070312 -1.69804687 10.31640625 -2.08984375 11.4453125 C-2.39019531 12.28835937 -2.69054687 13.13140625 -3 14 C-3.33 14 -3.66 14 -4 14 C-4.33 9.71 -4.66 5.42 -5 1 C-3.35 0.67 -1.7 0.34 0 0 Z " fill="#AD9379" transform="translate(174,162)"/>
<path d="M0 0 C1.46300982 0.93018526 2.92025579 1.86944027 4.375 2.8125 C5.18710938 3.33457031 5.99921875 3.85664062 6.8359375 4.39453125 C9 6 9 6 11 9 C7.43803486 9.19788695 4.85729372 9.2661295 2 7 C0.75 3.375 0.75 3.375 0 0 Z " fill="#AB947D" transform="translate(224,109)"/>
<path d="M0 0 C0.33 0 0.66 0 1 0 C2.06965872 6.32448699 3.13329546 12.64416673 4 19 C1.71717247 17.34495004 0.44237743 16.36529725 -1 14 C-1.66103593 9.1828765 -1.53945436 4.61836307 0 0 Z " fill="#AF9580" transform="translate(171,215)"/>
<path d="M0 0 C0.66 0.33 1.32 0.66 2 1 C-1.01387664 4.11822675 -3.16993826 5.27982833 -7.42578125 5.390625 C-9.05514818 5.36423849 -10.68429016 5.31682471 -12.3125 5.25 C-13.14845703 5.23195313 -13.98441406 5.21390625 -14.84570312 5.1953125 C-16.89763228 5.14841126 -18.94896756 5.07667411 -21 5 C-21 4.67 -21 4.34 -21 4 C-19.90300781 3.87882812 -18.80601562 3.75765625 -17.67578125 3.6328125 C-16.22131177 3.46390637 -14.76688696 3.29461519 -13.3125 3.125 C-12.59126953 3.04636719 -11.87003906 2.96773438 -11.12695312 2.88671875 C-7.0731077 2.4054403 -3.79619872 1.56355495 0 0 Z " fill="#AA9580" transform="translate(304,98)"/>
<path d="M0 0 C0.99 0.33 1.98 0.66 3 1 C1.47291037 4.43595166 -0.59927045 7.11912454 -3 10 C-3.99 9.67 -4.98 9.34 -6 9 C-5.01 7.02 -4.02 5.04 -3 3 C-2.34 3 -1.68 3 -1 3 C-0.67 2.01 -0.34 1.02 0 0 Z " fill="#AA9177" transform="translate(88,396)"/>
<path d="M0 0 C-0.33 1.32 -0.66 2.64 -1 4 C-2.65 3.67 -4.3 3.34 -6 3 C-6.2475 3.639375 -6.495 4.27875 -6.75 4.9375 C-8 7 -8 7 -10.125 7.75 C-11.053125 7.87375 -11.053125 7.87375 -12 8 C-12.33 7.34 -12.66 6.68 -13 6 C-11.40089132 4.99193149 -9.79551738 3.99379615 -8.1875 3 C-7.29417969 2.443125 -6.40085937 1.88625 -5.48046875 1.3125 C-3 0 -3 0 0 0 Z " fill="#AC9779" transform="translate(279,226)"/>
<path d="M0 0 C0.33 0 0.66 0 1 0 C1 6.93 1 13.86 1 21 C0.01 21 -0.98 21 -2 21 C-2.66 20.01 -3.32 19.02 -4 18 C-3.01 18 -2.02 18 -1 18 C-0.505 9.09 -0.505 9.09 0 0 Z " fill="#CCC1A9" transform="translate(329,205)"/>
<path d="M0 0 C0.33 0 0.66 0 1 0 C1.93402724 5.41735797 2.20808081 8.80451575 0 14 C-0.66 14 -1.32 14 -2 14 C-2.1799928 8.78020872 -1.97094808 4.92737019 0 0 Z " fill="#A48968" transform="translate(392,269)"/>
<path d="M0 0 C0.33 0 0.66 0 1 0 C1 2.31 1 4.62 1 7 C1.66 7 2.32 7 3 7 C3 8.32 3 9.64 3 11 C3.66 11 4.32 11 5 11 C5 13.31 5 15.62 5 18 C2.43508035 14.95235671 1.27344561 12.27542103 0.25 8.4375 C-0.01296875 7.48746094 -0.2759375 6.53742188 -0.546875 5.55859375 C-1 3 -1 3 0 0 Z " fill="#B59985" transform="translate(128,192)"/>
<path d="M0 0 C2.33333333 2.33333333 4.66666667 4.66666667 7 7 C7 8.32 7 9.64 7 11 C6.01 11.33 5.02 11.66 4 12 C4 10.02 4 8.04 4 6 C2.68 5.67 1.36 5.34 0 5 C0 3.35 0 1.7 0 0 Z " fill="#AC9783" transform="translate(498,409)"/>
<path d="M0 0 C0.66 0.33 1.32 0.66 2 1 C-0.37417093 3.62408366 -2.84911879 5.38613402 -6 7 C-7.32 7 -8.64 7 -10 7 C-10 7.66 -10 8.32 -10 9 C-11.32 8.67 -12.64 8.34 -14 8 C-13.01 8 -12.02 8 -11 8 C-11 7.34 -11 6.68 -11 6 C-9.21385682 4.96953278 -7.42089982 3.95086764 -5.625 2.9375 C-4.62726563 2.36902344 -3.62953125 1.80054687 -2.6015625 1.21484375 C-1.74304688 0.81394531 -0.88453125 0.41304688 0 0 Z " fill="#BCAC9A" transform="translate(91,124)"/>
<path d="M0 0 C2.015625 0.91015625 2.015625 0.91015625 3.28125 3.4140625 C3.60609375 4.42339844 3.9309375 5.43273437 4.265625 6.47265625 C4.60078125 7.48457031 4.9359375 8.49648437 5.28125 9.5390625 C5.64476562 10.71275391 5.64476562 10.71275391 6.015625 11.91015625 C5.355625 11.91015625 4.695625 11.91015625 4.015625 11.91015625 C4.015625 11.25015625 4.015625 10.59015625 4.015625 9.91015625 C3.355625 9.91015625 2.695625 9.91015625 2.015625 9.91015625 C1.355625 7.27015625 0.695625 4.63015625 0.015625 1.91015625 C-1.304375 1.58015625 -2.624375 1.25015625 -3.984375 0.91015625 C-1.984375 -0.08984375 -1.984375 -0.08984375 0 0 Z " fill="#AA9379" transform="translate(251.984375,73.08984375)"/>
<path d="M0 0 C0.50789062 0.26554687 1.01578125 0.53109375 1.5390625 0.8046875 C5.62218902 2.89977489 9.5873062 4.67619186 14 6 C10.61981469 7.04005702 7.5219721 7.08004482 4 7 C3.67 6.01 3.34 5.02 3 4 C1.00334686 2.31461399 1.00334686 2.31461399 -1 1 C-0.67 0.67 -0.34 0.34 0 0 Z " fill="#A48B71" transform="translate(198,312)"/>
<path d="M0 0 C2.4375 0.375 2.4375 0.375 5 1 C5.33 1.66 5.66 2.32 6 3 C8.01669827 4.13350534 8.01669827 4.13350534 10 5 C8.25 6.125 8.25 6.125 6 7 C3.875 6.4375 3.875 6.4375 2 5 C0.75 2.375 0.75 2.375 0 0 Z " fill="#A99178" transform="translate(424,310)"/>
<path d="M0 0 C0.99 0.33 1.98 0.66 3 1 C3 5.95 3 10.9 3 16 C0.21399498 10.42798997 -0.12170033 6.2067169 0 0 Z " fill="#B49A83" transform="translate(275,265)"/>
<path d="M0 0 C1.32 0.33 2.64 0.66 4 1 C2.1043015 3.84354775 0.90135447 5.2933209 -2 7 C-4.25 6.6875 -4.25 6.6875 -6 6 C-4.71034824 4.62437146 -3.37310707 3.29233607 -2 2 C-1.34 2 -0.68 2 0 2 C0 1.34 0 0.68 0 0 Z " fill="#A28970" transform="translate(57,146)"/>
<path d="M0 0 C0.33 0.99 0.66 1.98 1 3 C2.65 3 4.3 3 6 3 C5.01 3.495 5.01 3.495 4 4 C4.309375 5.423125 4.309375 5.423125 4.625 6.875 C4.74875 7.90625 4.8725 8.9375 5 10 C4.34 10.66 3.68 11.32 3 12 C-0.42857143 4.71428571 -0.42857143 4.71428571 0 0 Z " fill="#A9947B" transform="translate(54,327)"/>
<path d="M0 0 C0.66 0.33 1.32 0.66 2 1 C2 1.66 2 2.32 2 3 C1.34 3 0.68 3 0 3 C0.185625 3.78375 0.37125 4.5675 0.5625 5.375 C1 8 1 8 0 10 C0.66 10.33 1.32 10.66 2 11 C1.34 11 0.68 11 0 11 C0 11.66 0 12.32 0 13 C-2 12 -2 12 -3 9 C-2.44140625 6.73828125 -2.44140625 6.73828125 -1.5625 4.3125 C-1.13130859 3.10013672 -1.13130859 3.10013672 -0.69140625 1.86328125 C-0.46324219 1.24839844 -0.23507812 0.63351562 0 0 Z " fill="#B09880" transform="translate(396,258)"/>
<path d="M0 0 C0.66 0.33 1.32 0.66 2 1 C3.26761762 5.29581527 4 8.50944298 4 13 C3.34 13 2.68 13 2 13 C1.47212358 11.02270019 0.95287097 9.04309608 0.4375 7.0625 C0.00244141 5.40927734 0.00244141 5.40927734 -0.44140625 3.72265625 C-0.62574219 2.82417969 -0.81007813 1.92570313 -1 1 C-0.67 0.67 -0.34 0.34 0 0 Z " fill="#A08970" transform="translate(498,177)"/>
<path d="M0 0 C6.0546875 -0.1953125 6.0546875 -0.1953125 8 0 C8.66 0.66 9.32 1.32 10 2 C8.25215171 2.36463732 6.50159498 2.7163078 4.75 3.0625 C3.28820312 3.35833984 3.28820312 3.35833984 1.796875 3.66015625 C-0.868119 3.98397535 -2.48871723 3.85503199 -5 3 C-3.35 2.67 -1.7 2.34 0 2 C0 1.34 0 0.68 0 0 Z " fill="#AB8E76" transform="translate(222,124)"/>
<path d="M0 0 C-0.33 0.66 -0.66 1.32 -1 2 C-1.66 2 -2.32 2 -3 2 C-3 2.66 -3 3.32 -3 4 C-7.455 3.01 -7.455 3.01 -12 2 C-12 1.67 -12 1.34 -12 1 C-3.96428571 -1.27678571 -3.96428571 -1.27678571 0 0 Z " fill="#A99076" transform="translate(136,321)"/>
<path d="M0 0 C0.33 0.66 0.66 1.32 1 2 C3.02463255 2.65213292 3.02463255 2.65213292 5 3 C4.67 5.64 4.34 8.28 4 11 C1.55160412 7.32740617 0 4.45351799 0 0 Z " fill="#AF987F" transform="translate(257,261)"/>
<path d="M0 0 C1.32 0 2.64 0 4 0 C4 1.65 4 3.3 4 5 C4.66 5 5.32 5 6 5 C6 5.66 6 6.32 6 7 C6.66 7 7.32 7 8 7 C8.33 8.65 8.66 10.3 9 12 C7.62437146 10.71034824 6.29233607 9.37310707 5 8 C5 7.34 5 6.68 5 6 C4.34 6 3.68 6 3 6 C3 5.01 3 4.02 3 3 C2.01 2.67 1.02 2.34 0 2 C0 1.34 0 0.68 0 0 Z " fill="#AE9781" transform="translate(54,251)"/>
<path d="M0 0 C1.32 0 2.64 0 4 0 C5.42258812 3.82320557 6.24042276 6.91281305 6 11 C0 3.28571429 0 3.28571429 0 0 Z " fill="#B39B81" transform="translate(398,153)"/>
<path d="M0 0 C2.1793144 1.75864246 2.93686419 2.69396 3.51171875 5.48046875 C3.56972656 6.37378906 3.62773438 7.26710938 3.6875 8.1875 C3.75324219 9.08855469 3.81898437 9.98960937 3.88671875 10.91796875 C3.92410156 11.60503906 3.96148437 12.29210937 4 13 C2 12 2 12 0.875 8.75 C0.14536518 5.62299365 -0.19234975 3.17377095 0 0 Z " fill="#AA9476" transform="translate(43,295)"/>
<path d="M0 0 C3.14958831 3.42346555 3.56179109 6.44262737 4 11 C0.83884224 9.63016497 0.0072908 9.0109362 -2 6 C-1.34 6 -0.68 6 0 6 C0 4.02 0 2.04 0 0 Z " fill="#AF9C89" transform="translate(87,281)"/>
<path d="M0 0 C0.99 1.32 1.98 2.64 3 4 C-1.625 7 -1.625 7 -5 7 C-3.70700306 4.11562221 -2.34058637 2.12780579 0 0 Z " fill="#AE8F73" transform="translate(265,233)"/>
<path d="M0 0 C0.66 0.66 1.32 1.32 2 2 C-0.31 5.3 -2.62 8.6 -5 12 C-5.66 11.34 -6.32 10.68 -7 10 C-3.535 5.05 -3.535 5.05 0 0 Z " fill="#A89176" transform="translate(99,144)"/>
<path d="M0 0 C5.42039575 -0.40652968 9.07015675 0.96006486 14 3 C12.3125 4.125 12.3125 4.125 10 5 C7.25 4.125 7.25 4.125 5 3 C5 2.34 5 1.68 5 1 C3.35 1 1.7 1 0 1 C0 0.67 0 0.34 0 0 Z " fill="#B29D85" transform="translate(457,114)"/>
<path d="M0 0 C2.64 0.66 5.28 1.32 8 2 C8.33 3.32 8.66 4.64 9 6 C2.25 3.125 2.25 3.125 0 2 C0 1.34 0 0.68 0 0 Z " fill="#AC9984" transform="translate(271,282)"/>
<path d="M0 0 C0.33 0 0.66 0 1 0 C1.0810206 2.10353495 1.13919907 4.20795952 1.1875 6.3125 C1.22230469 7.48425781 1.25710937 8.65601563 1.29296875 9.86328125 C1 13 1 13 -2 16 C-1.34 10.72 -0.68 5.44 0 0 Z " fill="#AF997E" transform="translate(253,173)"/>
<path d="M0 0 C0.33 0 0.66 0 1 0 C1.37851209 5.93002267 0.10575375 10.47239641 -2 16 C-3.3805087 12.23331402 -2.59568159 9.55210827 -1.5625 5.75 C-1.27503906 4.67234375 -0.98757812 3.5946875 -0.69140625 2.484375 C-0.46324219 1.66453125 -0.23507813 0.8446875 0 0 Z " fill="#C3AFA1" transform="translate(126,139)"/>
<path d="M0 0 C0.66 0 1.32 0 2 0 C2.05395478 1.62463842 2.09277195 3.24978541 2.125 4.875 C2.14820313 5.77992187 2.17140625 6.68484375 2.1953125 7.6171875 C2 10 2 10 0 12 C-0.19477739 10.37585622 -0.38059458 8.75063577 -0.5625 7.125 C-0.66691406 6.22007813 -0.77132813 5.31515625 -0.87890625 4.3828125 C-1 2 -1 2 0 0 Z " fill="#A78F71" transform="translate(340,80)"/>
<path d="M0 0 C0.33 0 0.66 0 1 0 C1.33 2.31 1.66 4.62 2 7 C2.99 7.33 3.98 7.66 5 8 C4.03114628 9.68496298 3.03013277 11.35178756 2 13 C1.67 13 1.34 13 1 13 C0.67 8.71 0.34 4.42 0 0 Z " fill="#B19980" transform="translate(123,174)"/>
<path d="M0 0 C5.75 0.75 5.75 0.75 8 3 C7 4 7 4 3.9375 4.0625 C2.968125 4.041875 1.99875 4.02125 1 4 C0.67 2.68 0.34 1.36 0 0 Z " fill="#A89177" transform="translate(479,122)"/>
<path d="M0 0 C5.78461538 4.43076923 5.78461538 4.43076923 6.875 7.3125 C6.936875 8.1478125 6.936875 8.1478125 7 9 C4.625 8.4375 4.625 8.4375 2 7 C0.6875 3.375 0.6875 3.375 0 0 Z " fill="#B19C84" transform="translate(438,119)"/>
<path d="M0 0 C0.66 0.66 1.32 1.32 2 2 C1.625 4.125 1.625 4.125 1 6 C-0.98 6.33 -2.96 6.66 -5 7 C-3.47793991 4.37098712 -2.15634036 2.15634036 0 0 Z " fill="#B29980" transform="translate(141,117)"/>
<path d="M0 0 C0.66 0.99 1.32 1.98 2 3 C1.01 3 0.02 3 -1 3 C-1.33 5.31 -1.66 7.62 -2 10 C-2.99 9.34 -3.98 8.68 -5 8 C-4 6 -3 4 -2 2 C-1.34 2 -0.68 2 0 2 C0 1.34 0 0.68 0 0 Z " fill="#AE9B85" transform="translate(78,410)"/>
<path d="M0 0 C3 3 3 3 3.29296875 5.48046875 C3.25816406 6.37378906 3.22335937 7.26710938 3.1875 8.1875 C3.16042969 9.08855469 3.13335937 9.98960937 3.10546875 10.91796875 C3.07066406 11.60503906 3.03585937 12.29210937 3 13 C2.34 13 1.68 13 1 13 C0.67 13.66 0.34 14.32 0 15 C0 10.05 0 5.1 0 0 Z " fill="#C3B29A" transform="translate(299,266)"/>
<path d="M0 0 C0.33 0.66 0.66 1.32 1 2 C0.22265625 3.7265625 0.22265625 3.7265625 -0.9375 5.625 C-1.618125 6.73875 -2.29875 7.8525 -3 9 C-3.33 9 -3.66 9 -4 9 C-4.125 3.25 -4.125 3.25 -3 1 C-2.01 0.67 -1.02 0.34 0 0 Z " fill="#AB9079" transform="translate(319,265)"/>
<path d="M0 0 C3.68754757 0.49831724 5.60490662 1.10067643 8 4 C7.67 4.66 7.34 5.32 7 6 C5.68 5.34 4.36 4.68 3 4 C3 3.34 3 2.68 3 2 C2.01 1.67 1.02 1.34 0 1 C0 0.67 0 0.34 0 0 Z " fill="#A99176" transform="translate(293,258)"/>
<path d="M0 0 C-0.99 0 -1.98 0 -3 0 C-3.33 0.66 -3.66 1.32 -4 2 C-6.30532837 3.30635274 -8.47571223 4.15857074 -11 5 C-11.66 4.34 -12.32 3.68 -13 3 C-11.5903653 2.29819469 -10.17192359 1.61406042 -8.75 0.9375 C-7.96109375 0.55464844 -7.1721875 0.17179687 -6.359375 -0.22265625 C-3.74006478 -1.08564091 -2.55144824 -0.93045933 0 0 Z " fill="#B9A18A" transform="translate(372,103)"/>
<path d="M0 0 C0.33 0.66 0.66 1.32 1 2 C-0.65 3.98 -2.3 5.96 -4 8 C-5.32 7.67 -6.64 7.34 -8 7 C-7.236875 6.401875 -6.47375 5.80375 -5.6875 5.1875 C-3.6516425 3.53040668 -1.8021721 1.89702326 0 0 Z " fill="#B29981" transform="translate(277,302)"/>
<path d="M0 0 C-0.75 6.75 -0.75 6.75 -3 9 C-3.33 6.69 -3.66 4.38 -4 2 C-1 0 -1 0 0 0 Z " fill="#A68B73" transform="translate(535,296)"/>
<path d="M0 0 C1.875 0.8125 1.875 0.8125 2.875 2.8125 C2.545 3.4725 2.215 4.1325 1.875 4.8125 C1.215 4.8125 0.555 4.8125 -0.125 4.8125 C-0.125 4.1525 -0.125 3.4925 -0.125 2.8125 C-1.775 3.4725 -3.425 4.1325 -5.125 4.8125 C-5.125 2.8125 -5.125 2.8125 -3.875 1.125 C-2.125 -0.1875 -2.125 -0.1875 0 0 Z " fill="#9F8160" transform="translate(44.125,160.1875)"/>
<path d="M0 0 C6.75 1.625 6.75 1.625 9 5 C9 5.99 9 6.98 9 8 C6.47702391 6.73851196 4.96071552 5.02013114 3 3 C2.4225 2.4225 1.845 1.845 1.25 1.25 C0.8375 0.8375 0.425 0.425 0 0 Z " fill="#C1A992" transform="translate(259,125)"/>
<path d="M0 0 C0.66 0 1.32 0 2 0 C1.67 1.98 1.34 3.96 1 6 C-0.32 6 -1.64 6 -3 6 C-2.67 4.68 -2.34 3.36 -2 2 C-1.34 2 -0.68 2 0 2 C0 1.34 0 0.68 0 0 Z " fill="#B49F86" transform="translate(341,119)"/>
<path d="M0 0 C2.31 0.66 4.62 1.32 7 2 C6.38125 2.0825 5.7625 2.165 5.125 2.25 C2.81562433 2.81258459 2.81562433 2.81258459 1.75 5.0625 C1.5025 5.701875 1.255 6.34125 1 7 C0.34 5.02 -0.32 3.04 -1 1 C-0.67 0.67 -0.34 0.34 0 0 Z " fill="#B9A691" transform="translate(450,111)"/>
<path d="M0 0 C0.66 0 1.32 0 2 0 C5.22265625 5.17578125 5.22265625 5.17578125 6 7 C5.67 7.99 5.34 8.98 5 10 C2.35534962 6.8745041 1.15585285 3.91211733 0 0 Z " fill="#AC9680" transform="translate(67,359)"/>
<path d="M0 0 C-0.66 0 -1.32 0 -2 0 C-2.33 1.65 -2.66 3.3 -3 5 C-4.32 5.33 -5.64 5.66 -7 6 C-6.67 5.01 -6.34 4.02 -6 3 C-5.34 2.67 -4.68 2.34 -4 2 C-4.66 1.34 -5.32 0.68 -6 0 C-3.50907189 -1.24546405 -2.58919267 -0.7767578 0 0 Z " fill="#AC9071" transform="translate(478,321)"/>
<path d="M0 0 C-2 3 -2 3 -4.625 3.6875 C-5.800625 3.8421875 -5.800625 3.8421875 -7 4 C-7.33 3.01 -7.66 2.02 -8 1 C-5.29120665 -0.35439668 -2.99066732 -0.06501451 0 0 Z " fill="#A38460" transform="translate(88,314)"/>
<path d="M0 0 C0.66 0.33 1.32 0.66 2 1 C1.2884375 1.680625 1.2884375 1.680625 0.5625 2.375 C-1.09027808 3.93258204 -1.09027808 3.93258204 -2 6 C-3.98 6 -5.96 6 -8 6 C-5.38485683 3.87961365 -2.80362384 1.86908256 0 0 Z " fill="#B29C85" transform="translate(392,304)"/>
<path d="M0 0 C1.32 0 2.64 0 4 0 C4.36923077 5.53846154 4.36923077 5.53846154 2.5 7.875 C1.7575 8.431875 1.7575 8.431875 1 9 C1 7.02 1 5.04 1 3 C1.66 3 2.32 3 3 3 C3 2.34 3 1.68 3 1 C2.01 0.67 1.02 0.34 0 0 Z " fill="#9E8767" transform="translate(534,287)"/>
<path d="M0 0 C0.99 0 1.98 0 3 0 C1.75023244 3.65316671 1.32901247 4.78065836 -2 7 C-2.125 4.625 -2.125 4.625 -2 2 C-1.34 1.34 -0.68 0.68 0 0 Z " fill="#AA8E77" transform="translate(527,242)"/>
<path d="M0 0 C0.99 0 1.98 0 3 0 C2.34 3.3 1.68 6.6 1 10 C0.67 10 0.34 10 0 10 C0.020625 9.05125 0.04125 8.1025 0.0625 7.125 C0.22551826 4.09333717 0.22551826 4.09333717 -1 2 C-0.67 1.34 -0.34 0.68 0 0 Z " fill="#AC9378" transform="translate(74,187)"/>
<path d="M0 0 C1.7074998 1.28062485 3.37373596 2.61767557 5 4 C5 4.66 5 5.32 5 6 C0.25 5.125 0.25 5.125 -2 4 C-1.33333333 2.66666667 -0.66666667 1.33333333 0 0 Z " fill="#AF8F74" transform="translate(541,167)"/>
<path d="M0 0 C0.66 0 1.32 0 2 0 C1.375 2.4375 1.375 2.4375 0 5 C-3.125 5.8125 -3.125 5.8125 -6 6 C-5.67 5.34 -5.34 4.68 -5 4 C-4.34 4 -3.68 4 -3 4 C-3 3.34 -3 2.68 -3 2 C-2.01 2 -1.02 2 0 2 C0 1.34 0 0.68 0 0 Z " fill="#AB9578" transform="translate(151,109)"/>
<path d="M0 0 C5.75 1.75 5.75 1.75 8 4 C7.34 4.66 6.68 5.32 6 6 C5.34 5.34 4.68 4.68 4 4 C1.42938689 3.35232207 1.42938689 3.35232207 -1 3 C-0.67 2.01 -0.34 1.02 0 0 Z " fill="#AE947A" transform="translate(270,97)"/>
<path d="M0 0 C1.875 0.625 1.875 0.625 4 2 C5.25 5.125 5.25 5.125 6 8 C5.01 8 4.02 8 3 8 C3 6.35 3 4.7 3 3 C2.01 2.67 1.02 2.34 0 2 C0 1.34 0 0.68 0 0 Z " fill="#AA9681" transform="translate(489,397)"/>
<path d="M0 0 C0.66 0.33 1.32 0.66 2 1 C1.46930939 4.82097239 0.50298434 7.06171403 -2 10 C-1.85950482 8.52031676 -1.71245174 7.04125484 -1.5625 5.5625 C-1.48128906 4.73878906 -1.40007812 3.91507812 -1.31640625 3.06640625 C-1 1 -1 1 0 0 Z " fill="#B8A98E" transform="translate(503,371)"/>
<path d="M0 0 C0.66 0 1.32 0 2 0 C3.60725635 3.21451269 3.05748185 6.43612536 3 10 C0.70366176 6.55549263 0.45983515 4.06187717 0 0 Z " fill="#AB927A" transform="translate(238,90)"/>
<path d="M0 0 C0.33 0.66 0.66 1.32 1 2 C1.66 2 2.32 2 3 2 C3.68707555 4.49064888 4 6.37886292 4 9 C0.06153846 5.67692308 0.06153846 5.67692308 -0.25 2.25 C-0.1675 1.5075 -0.085 0.765 0 0 Z " fill="#B19C84" transform="translate(274,75)"/>
<path d="M0 0 C0 0.66 0 1.32 0 2 C1.32 2.33 2.64 2.66 4 3 C0.37 3 -3.26 3 -7 3 C-3 0 -3 0 0 0 Z " fill="#94795C" transform="translate(92,380)"/>
<path d="M0 0 C2.97 0.33 5.94 0.66 9 1 C9 1.99 9 2.98 9 4 C6.03 3.01 3.06 2.02 0 1 C0 0.67 0 0.34 0 0 Z " fill="#A79374" transform="translate(214,320)"/>
<path d="M0 0 C1.86323318 0.25288812 3.71708432 0.57690153 5.5625 0.9375 C6.57441406 1.13214844 7.58632812 1.32679688 8.62890625 1.52734375 C9.80259766 1.76130859 9.80259766 1.76130859 11 2 C11 2.33 11 2.66 11 3 C9.5629191 3.05422947 8.12524538 3.09289723 6.6875 3.125 C5.88699219 3.14820313 5.08648437 3.17140625 4.26171875 3.1953125 C2 3 2 3 -1 1 C-0.67 0.67 -0.34 0.34 0 0 Z " fill="#B69F88" transform="translate(100,320)"/>
<path d="M0 0 C0.66 0.33 1.32 0.66 2 1 C0.35 2.98 -1.3 4.96 -3 7 C-3.66 6.01 -4.32 5.02 -5 4 C-3.35 2.68 -1.7 1.36 0 0 Z " fill="#B09A81" transform="translate(75,133)"/>
<path d="M0 0 C1.65 1.65 3.3 3.3 5 5 C2 7 2 7 -1 7 C-1 6.34 -1 5.68 -1 5 C-0.34 5 0.32 5 1 5 C0.67 3.35 0.34 1.7 0 0 Z " fill="#AF9476" transform="translate(258,85)"/>
<path d="M0 0 C2.64 0 5.28 0 8 0 C4.93882432 2.62386487 4.26826873 3 0 3 C0 2.01 0 1.02 0 0 Z " fill="#B9A084" transform="translate(235,396)"/>
<path d="M0 0 C1.9451 2.91765 2.45276317 4.62537285 3 8 C2.34 8 1.68 8 1 8 C-0.42944945 5.64561267 -1.08661261 4.51967567 -0.625 1.75 C-0.41875 1.1725 -0.2125 0.595 0 0 Z " fill="#B5A18B" transform="translate(76,376)"/>
<path d="M0 0 C0.66 0 1.32 0 2 0 C2.1875 2.375 2.1875 2.375 2 5 C1.01 5.66 0.02 6.32 -1 7 C-1.66 5.35 -2.32 3.7 -3 2 C-2.01 2 -1.02 2 0 2 C0 1.34 0 0.68 0 0 Z " fill="#AB9070" transform="translate(148,312)"/>
<path d="M0 0 C0 3 0 3 -1.5 4.6875 C-1.995 5.120625 -2.49 5.55375 -3 6 C-3.99 5.34 -4.98 4.68 -6 4 C-4.02 2.68 -2.04 1.36 0 0 Z " fill="#AC9573" transform="translate(510,303)"/>
<path d="M0 0 C2.475 0.99 2.475 0.99 5 2 C4.01 2.99 3.02 3.98 2 5 C1.01 4.34 0.02 3.68 -1 3 C-0.67 2.01 -0.34 1.02 0 0 Z " fill="#A58F75" transform="translate(59,298)"/>
<path d="M0 0 C2.1519437 3.22791555 2.20086443 4.28400809 2 8 C1.01 8.33 0.02 8.66 -1 9 C-0.67 6.03 -0.34 3.06 0 0 Z " fill="#AD967D" transform="translate(402,235)"/>
<path d="M0 0 C0.66 0 1.32 0 2 0 C2 0.66 2 1.32 2 2 C3.65 1.67 5.3 1.34 7 1 C5.68 2.65 4.36 4.3 3 6 C3 5.34 3 4.68 3 4 C2.34 4 1.68 4 1 4 C0.67 2.68 0.34 1.36 0 0 Z " fill="#AF9176" transform="translate(540,218)"/>
<path d="M0 0 C0.99 0 1.98 0 3 0 C1.66666667 2.66666667 0.33333333 5.33333333 -1 8 C-2.3418344 5.31633121 -1.73004953 3.84719317 -1 1 C-0.67 0.67 -0.34 0.34 0 0 Z " fill="#B7A68B" transform="translate(556,199)"/>
<path d="M0 0 C0.99 0.33 1.98 0.66 3 1 C1.68 3.31 0.36 5.62 -1 8 C-1.33 8 -1.66 8 -2 8 C-2.20086443 4.28400809 -2.1519437 3.22791555 0 0 Z " fill="#AE9880" transform="translate(90,156)"/>
<path d="M0 0 C0.66 0.66 1.32 1.32 2 2 C-0.97 4.475 -0.97 4.475 -4 7 C-3.67 5.02 -3.34 3.04 -3 1 C-2.01 0.67 -1.02 0.34 0 0 Z " fill="#AD957E" transform="translate(188,141)"/>
<path d="M0 0 C0.99 0.33 1.98 0.66 3 1 C1.35 2.65 -0.3 4.3 -2 6 C-2 4.35 -2 2.7 -2 1 C-1.34 0.67 -0.68 0.34 0 0 Z " fill="#AB917C" transform="translate(111,130)"/>
<path d="M0 0 C1.4540625 0.0309375 1.4540625 0.0309375 2.9375 0.0625 C2.9375 0.7225 2.9375 1.3825 2.9375 2.0625 C1.2875 2.7225 -0.3625 3.3825 -2.0625 4.0625 C-2.7225 3.0725 -3.3825 2.0825 -4.0625 1.0625 C-3.0625 0.0625 -3.0625 0.0625 0 0 Z " fill="#9C774F" transform="translate(458.0625,115.9375)"/>
<path d="M0 0 C3 0 3 0 4.6875 1.5 C5.120625 1.995 5.55375 2.49 6 3 C5.67 3.66 5.34 4.32 5 5 C2.525 4.01 2.525 4.01 0 3 C0 2.01 0 1.02 0 0 Z " fill="#B09782" transform="translate(432,114)"/>
<path d="M0 0 C1.98 0.99 1.98 0.99 4 2 C4 3.98 4 5.96 4 8 C1.10067643 5.60490662 0.49831724 3.68754757 0 0 Z " fill="#AF9880" transform="translate(241,100)"/>
<path d="M0 0 C0.66 0 1.32 0 2 0 C2 0.66 2 1.32 2 2 C2.99 2.33 3.98 2.66 5 3 C5 3.66 5 4.32 5 5 C2.83125748 4.49396008 1.00032373 4.00016187 -1 3 C-0.67 2.01 -0.34 1.02 0 0 Z " fill="#A18B6E" transform="translate(279,82)"/>
</svg>
